<?xml version="1.0" encoding="UTF-8"?>
<svg id="Capa_1" data-name="Capa 1" xmlns="http://www.w3.org/2000/svg" viewBox="0 0 1044.25 435.99">
  <defs>
    <style>
      .cls-1 {
        fill: #e95c2a;
        stroke-width: 0px;
      }
    </style>
  </defs>
  <g>
    <path class="cls-1" d="m.91,247.6c.09-3.74,1.46-7.57,4.13-11.49,2.67-3.91,5.77-6.41,9.31-7.5l1.4.03c.47.01.82-.04,1.06-.15.23-.11.47-.16.71-.16s.46.07.7.19c.23.13.58.19,1.05.2l1.4.03c.7.25,1.85.81,3.47,1.66,1.61.86,2.65,1.41,3.12,1.65.44.95,1.52,2.67,3.21,5.17,1.7,2.5,2.65,4.1,2.87,4.81.21.71.58,2.47,1.1,5.29.51,2.82,1.09,5.94,1.71,9.34.62,3.41,1.19,6.52,1.71,9.34.51,2.82.88,4.58,1.1,5.29.22.48.72,1.54,1.5,3.2.78,1.66,1.39,2.73,1.85,3.2.45.48,1.48,1.61,3.08,3.41,1.59,1.79,2.62,2.93,3.08,3.41,1.14,1.2,2.53,1.94,4.16,2.2,1.63.27,3.49.67,5.59,1.19,3.3-.85,5.85-2.37,7.66-4.56,1.81-2.18,3.68-4.77,5.63-7.77,4.78-14.16,8.4-28.29,10.84-42.4,2.44-14.1,3.97-29.33,4.6-45.7.36-14.97-.11-29.84-1.4-44.62-1.29-14.77-2.33-29.9-3.14-45.36-.19-2.11-.39-5.74-.62-10.9-.23-5.15-.45-10.66-.66-16.52-.21-5.85-.43-11.42-.66-16.69-.23-5.27-.31-8.96-.26-11.06l-3.05-4.64c-14.03-.33-25.43-1.13-34.17-2.39-8.75-1.26-15.56-2.65-20.44-4.17-4.88-1.52-8.18-2.88-9.91-4.1-1.73-1.21-2.71-2.05-2.92-2.53.11-4.68.39-9.12.84-13.32.45-4.2,3.51-7.17,9.16-8.91l139.29,3.31c.47.01,2.27.47,5.41,1.36,3.14.9,5.63,1.6,7.5,2.11,1.16.5,2.96,1.12,5.4,1.88s3.77,1.26,4,1.5c.46.25,1.21.85,2.24,1.81,1.03.96,2.06,1.98,3.09,3.06,1.03,1.08,1.94,2.1,2.74,3.05.79.96,1.31,1.56,1.54,1.79l-.05,2.11c-.01.47.03.94.14,1.41.1.47.15.94.14,1.41-.04,1.88-.26,3.39-.63,4.55-.38,1.16-1.52,2.31-3.42,3.43-.95.45-2.37,1-4.25,1.65-1.89.66-3.84,1.31-5.84,1.97-2.01.65-3.89,1.26-5.66,1.8-1.77.55-3,.81-3.7.79-1.41.2-3.76.44-7.04.71-3.29.27-6.8.54-10.55.8-3.75.26-7.38.47-10.9.62-3.51.15-5.97.21-7.38.18l-3.23,3.08c0,.24-.23,2.1-.66,5.6-.43,3.5-.89,7.7-1.35,12.61-.47,4.9-.94,9.87-1.41,14.89-.47,5.02-.74,9.17-.82,12.44-.34,4.2-.66,10.69-.99,19.46-.33,8.77-.74,18.65-1.23,29.64-.5,10.99-1.01,22.56-1.53,34.72-.52,12.16-.98,23.79-1.36,34.9-.38,11.11-.8,21.05-1.23,29.81-.44,8.77-.71,15.25-.81,19.46-.03,1.17-.25,3.15-.67,5.95-.42,2.8-.84,5.72-1.26,8.75-.42,3.03-.84,5.95-1.26,8.75-.42,2.8-.76,4.67-1.01,5.59-1.02,3.26-1.8,6.63-2.35,10.13-.55,3.5-2.03,6.62-4.43,9.37-4.31,4.11-8.02,7.3-11.11,9.57-3.1,2.27-6.36,3.83-9.77,4.68-3.42.86-7.23,1.23-11.44,1.13s-9.71-.35-16.48-.74c-.47-.01-1.92-.45-4.36-1.33-2.44-.88-4.24-1.56-5.39-2.06-.7-.25-1.97-.86-3.82-1.85-1.85-.98-3.76-2.02-5.72-3.12-1.97-1.1-3.87-2.14-5.72-3.12-1.85-.98-3.12-1.71-3.81-2.2-4.41-1.74-8.49-4.59-12.26-8.54-3.77-3.95-7.13-7.72-10.09-11.3-.67-1.18-1.79-3.43-3.35-6.75-1.56-3.31-2.45-5.44-2.66-6.38,0-.23-.01-2.05-.05-5.44-.04-3.39-.03-6.02.01-7.9l.73-15.78Z"/>
    <path class="cls-1" d="m154.06,191.47v-6.8c0-2.84.05-5.64.16-8.38.1-2.74.16-5.16.16-7.27v-3.48c0-.63.37-2.32,1.11-5.06.74-2.74,1.53-5.74,2.37-9.01.84-3.26,1.68-6.48,2.53-9.64.84-3.16,1.47-5.48,1.9-6.95,2.53-8.01,5.79-16.06,9.8-24.18,4-8.11,8.53-15.54,13.59-22.28,4.21-6.11,9.53-11.69,15.96-16.75,6.42-5.06,12.69-9.8,18.81-14.22,17.07-5.69,33.35-9.69,48.83-12.01,15.49-2.32,29.66-2.89,42.51-1.74,12.85,1.16,24.07,4.16,33.66,9.01,9.59,4.85,16.91,11.49,21.97,19.91.42.42,1.58,2.05,3.48,4.9s3.37,5.11,4.43,6.8c.84,1.26,1.9,2.95,3.16,5.06,1.26,2.11,2.47,4.22,3.63,6.32,1.16,2.11,2.21,3.9,3.16,5.37.95,1.48,1.42,2.32,1.42,2.53.21.63.84,2.42,1.9,5.37,1.05,2.95,2.21,6.27,3.48,9.96,1.26,3.69,2.47,7.38,3.63,11.06,1.16,3.69,2.05,6.59,2.69,8.69,1.47,4.85,2.53,9.48,3.16,13.91s1.05,9.59,1.26,15.49c0,8.85-.84,17.49-2.53,25.92-1.69,8.43-3.48,17.07-5.37,25.92-.42,1.06-1.16,3.22-2.21,6.48-1.06,3.27-2.21,6.75-3.48,10.43-1.26,3.69-2.48,7.22-3.63,10.59-1.16,3.37-1.95,5.8-2.37,7.27-5.06,13.49-12.59,25.55-22.6,36.19-10.01,10.64-21.86,19.23-35.56,25.76-.84.21-2.8.69-5.85,1.42-3.06.74-6.32,1.58-9.8,2.53-3.48.95-6.75,1.9-9.8,2.84-3.06.95-4.9,1.53-5.53,1.74-.42,0-1.42.37-3,1.11-1.58.74-3.22,1.58-4.9,2.53-1.69.95-3.27,1.79-4.74,2.53-1.48.74-2.42,1.11-2.84,1.11h-1.9c-1.06,0-2.27.05-3.63.16-1.37.1-2.74.16-4.11.16h-6.95c-1.58,0-3.11-.05-4.58-.16-1.48-.11-2.84-.16-4.11-.16h-2.21c-.21,0-.84-.16-1.9-.47-1.06-.32-2.16-.69-3.32-1.11-1.16-.42-2.32-.84-3.48-1.26-1.16-.42-2.05-.74-2.69-.95-.42-.21-1.37-.74-2.84-1.58-1.48-.84-3.11-1.68-4.9-2.53-1.79-.84-3.43-1.68-4.9-2.53-1.48-.84-2.42-1.37-2.84-1.58-6.75,0-12.8-2.21-18.17-6.64-5.37-4.43-10.9-9.9-16.59-16.44-.21-.21-.79-.89-1.74-2.05-.95-1.16-2.05-2.58-3.32-4.27-1.26-1.68-2.53-3.37-3.79-5.06-1.26-1.68-2.32-3.05-3.16-4.11-2.74-4.42-5.37-8.8-7.9-13.12-2.53-4.32-4.95-9.01-7.27-14.06-.21-.21-.47-.95-.79-2.21-.32-1.26-.69-2.69-1.11-4.27-.42-1.58-.84-3.21-1.26-4.9-.42-1.68-.74-2.95-.95-3.79-.21-1.26-.53-2.95-.95-5.06-.42-2.1-.84-4.21-1.26-6.32-.42-2.1-.79-3.95-1.11-5.53-.32-1.58-.47-2.47-.47-2.69v-4.11c0-2.32-.05-4.95-.16-7.9-.11-2.95-.16-5.95-.16-9.01v-7.43Zm42.35-6.64c0,1.69.05,4.06.16,7.11.1,3.06.16,6.06.16,9.01s.05,5.59.16,7.9c.1,2.32.16,3.59.16,3.79,0,.84.32,2.69.95,5.53s1.37,5.9,2.21,9.17c.84,3.27,1.68,6.38,2.53,9.32.84,2.95,1.58,5.06,2.21,6.32.42,1.26,1.16,3.06,2.21,5.37,1.05,2.32,2.16,4.74,3.32,7.27,1.16,2.53,2.32,4.85,3.48,6.95,1.16,2.11,1.95,3.48,2.37,4.11.84,1.06,2.16,2.53,3.95,4.42,1.79,1.9,3.74,3.9,5.85,6.01,2.1,2.11,4.05,4,5.85,5.69,1.79,1.69,3,2.84,3.63,3.48,4.84,2.53,10.11,4.16,15.8,4.9,5.69.74,11.48.85,17.38.32,5.9-.52,11.64-1.63,17.23-3.32,5.58-1.68,10.8-3.79,15.64-6.32,1.68-2.53,4.11-4.63,7.27-6.32,3.16-1.68,5.9-3.37,8.22-5.06.63-.42,1.84-1.37,3.63-2.84,1.79-1.47,3.68-3.05,5.69-4.74,2-1.68,3.95-3.32,5.85-4.9s3.26-2.69,4.11-3.32c.42-.42,1.11-1,2.05-1.74.95-.74,1.53-1.31,1.74-1.74.21-.21.52-.68.95-1.42.42-.74.84-1.58,1.26-2.53.42-.95.84-1.84,1.26-2.69.42-.84.63-1.37.63-1.58.42-.21,1.05-.79,1.9-1.74.84-.95,1.47-1.53,1.9-1.74.21-.63.68-1.84,1.42-3.63.74-1.79,1.53-3.74,2.37-5.85.84-2.1,1.63-4.11,2.37-6,.74-1.9,1.31-3.26,1.74-4.11.21-.84.52-2.05.95-3.63.42-1.58.84-3.16,1.26-4.74.42-1.58.74-3.05.95-4.42.21-1.37.32-2.26.32-2.69v-3.63c0-2.21.05-4.74.16-7.59.1-2.84.16-5.74.16-8.69v-14.22c0-2.95-.05-5.85-.16-8.69-.11-2.84-.16-5.37-.16-7.59v-3.63c0-.63-.11-1.63-.32-3-.21-1.37-.53-2.89-.95-4.58-.42-1.68-.84-3.26-1.26-4.74-.42-1.47-.74-2.53-.95-3.16-2.32-6.53-4.85-11.9-7.59-16.12-2.74-4.21-5.85-7.85-9.32-10.9-3.48-3.05-7.32-5.79-11.54-8.22-4.22-2.42-8.96-5-14.22-7.74-3.59-1.47-7.11-2.42-10.59-2.84-3.48-.42-7.64-.74-12.48-.95-13.27,0-26.34,1.26-39.19,3.79-2.95,1.06-6.01,2.9-9.17,5.53-3.16,2.64-6.43,4.69-9.8,6.16-1.06,1.06-2.58,2.53-4.58,4.42-2.01,1.9-4.01,3.85-6.01,5.85l-5.69,5.69c-1.79,1.79-2.9,3-3.32,3.63-.21.21-.69.95-1.42,2.21-.74,1.26-1.48,2.74-2.21,4.42-.74,1.69-1.48,3.37-2.21,5.06-.74,1.69-1.32,2.95-1.74,3.79-.63,1.26-1.42,2.95-2.37,5.06-.95,2.11-1.79,4.16-2.53,6.16-.74,2.01-1.42,3.79-2.05,5.37-.63,1.58-.95,2.48-.95,2.69,0,.42-.05,1.69-.16,3.79-.11,2.11-.16,4.58-.16,7.43s-.05,5.69-.16,8.53c-.11,2.85-.16,5.22-.16,7.11Z"/>
    <path class="cls-1" d="m408.79,288.11c-.92-5.73-.23-9.8,2.06-12.21,2.29-2.41,5.62-3.84,9.98-4.3,4.35-.46,9.4-.23,15.14.69,5.73.92,11.46,1.84,17.2,2.75,5.73.92,11.23,1.49,16.51,1.72,5.27.23,9.51-.57,12.73-2.41,6.88-1.83,13.18-4.93,18.92-9.29,5.73-4.35,10.6-9.57,14.62-15.65,4.01-6.07,7.11-12.61,9.29-19.61,2.18-6.99,3.27-13.93,3.27-20.81,0-8.71-2.41-15.76-7.22-21.16-4.82-5.39-10.72-9.92-17.72-13.59-7-3.67-14.45-6.65-22.36-8.94-7.91-2.29-14.96-4.7-21.15-7.22-9.41-3.67-17.66-7.85-24.77-12.55-7.11-4.7-13.07-10.2-17.89-16.51-4.82-6.3-8.43-13.64-10.84-22.01-2.41-8.37-3.61-18.17-3.61-29.41,0-10.32,2-20.06,6.02-29.24,4.01-9.17,9.46-17.2,16.34-24.08s14.9-12.27,24.08-16.17c9.17-3.9,18.92-5.85,29.24-5.85,7.57,0,16.05,1.03,25.45,3.1,9.4,2.06,18.23,5.28,26.49,9.63,8.26,4.36,15.19,9.86,20.81,16.51,5.62,6.65,8.43,14.57,8.43,23.74,0,.69-.06,2.29-.17,4.82-.12,2.53-.17,4.25-.17,5.16-.69,1.38-1.44,2.18-2.24,2.41-.81.23-1.78.34-2.92.34-3.44,0-6.94-.74-10.49-2.24-3.56-1.49-7.05-3.32-10.49-5.5-3.44-2.18-6.83-4.41-10.15-6.71-3.33-2.29-6.36-4.13-9.12-5.5.69-.23-.81-1.09-4.47-2.58-3.67-1.49-8.55-2.69-14.62-3.61-6.08-.91-12.85-1.2-20.3-.86-7.45.34-14.62,2.24-21.5,5.68-5.28,3.67-9,7.97-11.18,12.9-2.18,4.93-3.27,10.49-3.27,16.68,0,8.26,2.06,15.31,6.19,21.15s9.51,10.95,16.17,15.31c6.65,4.36,14.16,8.14,22.53,11.35,8.37,3.21,16.68,6.31,24.94,9.29,8.25,2.98,16.11,6.08,23.56,9.29,7.45,3.21,13.7,6.77,18.75,10.66,7.11,7.11,12.32,15.37,15.65,24.77,3.32,9.41,5.21,19.21,5.68,29.41.46,10.21-.29,20.47-2.24,30.79-1.95,10.32-4.42,19.84-7.4,28.55-6.88,11.01-13.36,19.9-19.43,26.66-6.08,6.77-12.61,11.93-19.61,15.48-7,3.56-15.08,5.97-24.25,7.22-9.17,1.26-20.3,1.89-33.37,1.89-5.5,0-11.52-.12-18.06-.34-6.54-.23-12.73-1.26-18.58-3.1-5.85-1.83-10.72-4.76-14.62-8.77-3.9-4.01-5.85-9.92-5.85-17.71Z"/>
    <path class="cls-1" d="m612.62,226.6v-6.98c0-3.02.06-6.05.17-9.08.11-3.02.17-5.76.17-8.21v-4.36c0-2.32.11-5.99.35-11,.23-5,.46-10.7.7-17.11.23-6.4.52-13.21.87-20.43.35-7.21.7-14.08,1.05-20.6.35-6.51.64-12.4.87-17.63.23-5.24.46-9.25.7-12.05,0-2.1.23-5.7.7-10.82.46-5.12.93-10.53,1.4-16.24.46-5.7.93-11.05,1.4-16.06.46-5,.81-8.43,1.05-10.3,0-.93.23-2.62.7-5.06.46-2.44.93-5.06,1.4-7.86.46-2.79.93-5.53,1.4-8.21.46-2.67.81-4.71,1.05-6.11.23-1.16.52-2.73.87-4.71.35-1.98.81-3.96,1.4-5.94.58-1.98,1.05-3.67,1.4-5.06.35-1.4.64-2.1.87-2.1.7,0,1.4-.11,2.09-.35.46,0,1.05-.05,1.75-.17.7-.11,1.28-.17,1.75-.17,3.02,0,5.35.23,6.98.7,1.63.47,3.37,1.98,5.24,4.54.23.47.99,1.81,2.27,4.02,1.28,2.21,2.04,3.9,2.27,5.06.23.47.46,1.46.7,2.97.23,1.52.52,4.77.87,9.78.35,5.01.7,12.4,1.05,22.17.35,9.78.64,23.22.87,40.33.23,17.11.46,38.53.7,64.25.23,25.72.35,56.97.35,93.75l4.19,22.35c2.1,0,5.7.23,10.82.7,5.12.47,10.53.93,16.24,1.4,5.7.47,11.05.87,16.06,1.22,5,.35,8.55.64,10.65.87,6.05.93,12.05,2.15,17.98,3.67,5.94,1.52,12.05,3.32,18.33,5.41,1.86,1.4,4.3,2.62,7.33,3.67,3.02,1.05,5,2.85,5.94,5.41,0,3.96-.12,7.63-.35,11-.23,3.38-1.63,7.16-4.19,11.35-.47.47-1.87,1.28-4.19,2.44-2.33,1.17-3.84,1.87-4.54,2.09h-7.68c-3.73,0-7.57.05-11.52.17-3.96.11-7.8.17-11.52.17h-7.68c-4.66,0-10.13.11-16.41.35-6.29.23-12.8.23-19.55,0-6.75-.23-13.44-.81-20.08-1.75-6.63-.93-12.74-2.56-18.33-4.89-5.59-2.32-10.36-5.53-14.32-9.6-3.96-4.07-6.52-9.37-7.68-15.89-1.63-9.78-2.79-19.55-3.49-29.33-.7-9.78-1.17-20.37-1.4-31.77Z"/>
    <path class="cls-1" d="m749.78,27.27h6.36c3.1,0,6.42-.04,9.98-.13,3.55-.09,6.88-.13,9.98-.13h15.14c3.55,0,7.11.05,10.66.13,3.55.09,6.65.13,9.29.13h4.64c.69,0,2.18.13,4.47.4,2.29.27,4.82.53,7.57.8,2.75.27,5.45.58,8.08.94,2.63.36,4.53.63,5.68.8.69.18,2.41.63,5.16,1.34,2.75.71,4.7,1.25,5.85,1.6,1.14.36,2.69.8,4.64,1.34,1.95.53,2.92.98,2.92,1.34,0,.18.11.98.34,2.41.23,1.43.34,2.59.34,3.48,0,.71-.12,1.78-.34,3.21-.23,1.43-.34,2.32-.34,2.67-.23.36-1.32,1.2-3.27,2.54-1.95,1.34-3.39,2.27-4.3,2.81-.69.36-1.95.89-3.78,1.6-1.84.71-2.98,1.16-3.44,1.34h-3.96c-1.95,0-4.01.05-6.19.13-2.18.09-4.25.13-6.19.13h-9.29c-2.18,0-4.36-.04-6.54-.13-2.18-.09-4.88-.13-8.08-.13-.46,0-1.2-.13-2.24-.4-1.03-.27-2.18-.58-3.44-.94-1.26-.36-2.47-.67-3.61-.94-1.15-.27-1.84-.49-2.06-.67h-3.44c-3.21.36-7.11.67-11.7.94-4.59.27-9.06.58-13.42.94-5.05.36-10.21.71-15.48,1.07l-3.78,2.94c-.46,7.67-.92,15.07-1.38,22.19-.46,6.24-.92,12.57-1.38,18.99-.46,6.42-.81,11.77-1.03,16.04v2.94c.23.89.52,1.96.86,3.21.34,1.25.74,2.5,1.2,3.74.46,1.25,1.03,2.67,1.72,4.28h95.63c.46,0,1.66.4,3.61,1.2,1.95.8,3.27,1.47,3.96,2.01s2,1.47,3.96,2.81c1.95,1.34,3.04,2.18,3.27,2.54v1.07c0,.36.05.67.17.94.11.27.17.49.17.67,0,.36-.06.94-.17,1.74-.12.8-.17,1.3-.17,1.47l-3.78,5.88c-.23.36-.75.85-1.55,1.47-.81.63-1.44,1.03-1.89,1.2-1.15.53-2.75,1.2-4.82,2.01-2.06.8-4.07,1.6-6.02,2.41-1.95.8-4.42,1.74-7.4,2.81h-84.96c-1.38,8.56-2.47,15.78-3.27,21.66-.81,5.88-1.61,11.99-2.41,18.32-.81,6.33-1.43,11.54-1.89,15.64,0,.36-.06,1.56-.17,3.61-.12,2.05-.17,3.52-.17,4.41,0,.71.05,1.92.17,3.61.11,1.7.17,2.63.17,2.81,0,.36.46.94,1.38,1.74.91.8,1.72,1.2,2.41,1.2,2.52,0,6.93-.04,13.24-.13,6.3-.09,13.01-.13,20.12-.13s13.76.05,19.95.13c6.19.09,10.54.13,13.07.13.46,0,1.49.09,3.1.27,1.6.18,3.38.45,5.33.8,1.95.36,3.84.71,5.68,1.07,1.83.36,3.21.63,4.13.8,1.6.36,3.78.89,6.54,1.6,2.75.71,4.24,1.16,4.47,1.34,1.15.36,2.63,1.3,4.47,2.81,1.83,1.52,2.87,2.45,3.1,2.81,0,.18.11.85.34,2.01.23,1.16.34,1.92.34,2.27,0,.53-.12,1.34-.34,2.41-.23,1.07-.34,1.7-.34,1.87-.23.36-.81.89-1.72,1.6l-3.27,2.54c-1.26.98-2.47,1.87-3.61,2.67-1.15.8-2.06,1.38-2.75,1.74-.46.36-2.06.89-4.82,1.6-2.75.71-4.7,1.16-5.85,1.34-1.38.18-3.39.45-6.02.8-2.64.36-5.33.67-8.08.94-2.75.27-5.28.54-7.57.8-2.29.27-3.67.4-4.13.4-.92,0-3.33-.13-7.22-.4-3.9-.27-8.2-.53-12.9-.8-4.7-.27-9.29-.58-13.76-.94-4.47-.36-7.86-.62-10.15-.8-.69,0-1.89-.13-3.61-.4-1.72-.27-3.56-.58-5.5-.94-1.95-.36-3.84-.67-5.68-.94-1.84-.27-3.1-.49-3.78-.67-.69-.18-2.47-.62-5.33-1.34-2.87-.71-4.88-1.25-6.02-1.6-.69-.36-1.95-.89-3.78-1.6-1.84-.71-2.98-1.16-3.44-1.34-.46-.36-1.67-1.29-3.61-2.81-1.95-1.51-3.27-2.45-3.96-2.81-.46-.53-1.15-1.51-2.06-2.94-.92-1.42-1.38-2.31-1.38-2.67V50c0-.18.46-.98,1.38-2.41.91-1.42,1.6-2.41,2.06-2.94.46-.35,1.2-.98,2.24-1.87,1.03-.89,2.18-1.78,3.44-2.67,1.26-.89,2.41-1.74,3.44-2.54,1.03-.8,1.77-1.38,2.24-1.74.46-.35,1.6-.8,3.44-1.34,1.83-.53,3.21-.98,4.13-1.34.69-.18,2.06-.53,4.13-1.07,2.06-.53,4.3-1.11,6.71-1.74,2.41-.62,4.64-1.2,6.71-1.74,2.06-.53,3.55-.98,4.47-1.34Z"/>
    <path class="cls-1" d="m933.14,15.35h6.36c3.1,0,6.42-.05,9.98-.17,3.55-.11,6.88-.17,9.98-.17h15.14c3.55,0,7.11.06,10.66.17,3.55.12,6.65.17,9.29.17h4.64c.69,0,2.18.17,4.47.51,2.29.34,4.82.69,7.57,1.03,2.75.34,5.45.74,8.08,1.2,2.63.46,4.53.8,5.68,1.03.69.23,2.41.8,5.16,1.72,2.75.92,4.7,1.6,5.85,2.06,1.14.46,2.69,1.03,4.64,1.71,1.95.69,2.92,1.26,2.92,1.71,0,.23.11,1.26.34,3.09.23,1.83.34,3.32.34,4.46,0,.92-.12,2.29-.34,4.12-.23,1.83-.34,2.97-.34,3.43-.23.46-1.32,1.54-3.27,3.26-1.95,1.71-3.39,2.91-4.3,3.6-.69.46-1.95,1.15-3.78,2.06-1.84.92-2.98,1.49-3.44,1.71h-3.96c-1.95,0-4.01.06-6.19.17-2.18.12-4.25.17-6.19.17h-9.29c-2.18,0-4.36-.05-6.54-.17-2.18-.11-4.88-.17-8.08-.17-.46,0-1.2-.17-2.24-.51-1.03-.34-2.18-.74-3.44-1.2-1.26-.46-2.47-.86-3.61-1.2-1.15-.34-1.84-.63-2.06-.86h-3.44c-3.21.46-7.11.86-11.7,1.2-4.59.34-9.06.74-13.42,1.2-5.05.46-10.21.92-15.48,1.37l-3.78,3.77c-.46,9.83-.92,19.32-1.38,28.46-.46,8.01-.92,16.12-1.38,24.35-.46,8.23-.81,15.09-1.03,20.58v3.77c.23,1.15.52,2.52.86,4.12.34,1.6.74,3.2,1.2,4.8.46,1.6,1.03,3.43,1.72,5.49h95.63c.46,0,1.66.52,3.61,1.54,1.95,1.03,3.27,1.89,3.96,2.57s2,1.89,3.96,3.6c1.95,1.71,3.04,2.8,3.27,3.26v1.37c0,.46.05.86.17,1.2.11.34.17.63.17.86,0,.46-.06,1.2-.17,2.23-.12,1.03-.17,1.66-.17,1.89l-3.78,7.54c-.23.46-.75,1.09-1.55,1.89-.81.8-1.44,1.32-1.89,1.54-1.15.69-2.75,1.54-4.82,2.57-2.06,1.03-4.07,2.06-6.02,3.09-1.95,1.03-4.42,2.23-7.4,3.6h-84.96c-1.38,10.97-2.47,20.23-3.27,27.78-.81,7.54-1.61,15.38-2.41,23.49-.81,8.12-1.43,14.81-1.89,20.06,0,.46-.06,2-.17,4.63-.12,2.63-.17,4.52-.17,5.66,0,.92.05,2.46.17,4.63.11,2.18.17,3.38.17,3.6,0,.46.46,1.2,1.38,2.23.91,1.03,1.72,1.54,2.41,1.54,2.52,0,6.93-.05,13.24-.17,6.3-.11,13.01-.17,20.12-.17s13.76.06,19.95.17c6.19.12,10.54.17,13.07.17.46,0,1.49.12,3.1.34,1.6.23,3.38.57,5.33,1.03,1.95.46,3.84.92,5.68,1.37,1.83.46,3.21.8,4.13,1.03,1.6.46,3.78,1.15,6.54,2.06,2.75.92,4.24,1.49,4.47,1.71,1.15.46,2.63,1.66,4.47,3.6,1.83,1.95,2.87,3.15,3.1,3.6,0,.23.11,1.09.34,2.57.23,1.49.34,2.46.34,2.91,0,.69-.12,1.71-.34,3.09-.23,1.37-.34,2.18-.34,2.4-.23.46-.81,1.15-1.72,2.06l-3.27,3.26c-1.26,1.26-2.47,2.4-3.61,3.43-1.15,1.03-2.06,1.77-2.75,2.23-.46.46-2.06,1.15-4.82,2.06-2.75.92-4.7,1.49-5.85,1.71-1.38.23-3.39.57-6.02,1.03-2.64.46-5.33.86-8.08,1.2-2.75.34-5.28.69-7.57,1.03-2.29.34-3.67.52-4.13.52-.92,0-3.33-.17-7.22-.52-3.9-.34-8.2-.69-12.9-1.03-4.7-.34-9.29-.74-13.76-1.2-4.47-.46-7.86-.8-10.15-1.03-.69,0-1.89-.17-3.61-.51-1.72-.34-3.56-.74-5.5-1.2-1.95-.46-3.84-.86-5.68-1.2-1.84-.34-3.1-.63-3.78-.86-.69-.22-2.47-.8-5.33-1.71-2.87-.91-4.88-1.6-6.02-2.06-.69-.46-1.95-1.14-3.78-2.06-1.84-.91-2.98-1.48-3.44-1.71-.46-.46-1.67-1.66-3.61-3.6-1.95-1.94-3.27-3.14-3.96-3.6-.46-.69-1.15-1.94-2.06-3.77-.92-1.83-1.38-2.97-1.38-3.43V44.5c0-.23.46-1.25,1.38-3.09.91-1.83,1.6-3.09,2.06-3.77.46-.46,1.2-1.25,2.24-2.4,1.03-1.14,2.18-2.28,3.44-3.43,1.26-1.14,2.41-2.23,3.44-3.26,1.03-1.03,1.77-1.77,2.24-2.23.46-.46,1.6-1.03,3.44-1.71,1.83-.69,3.21-1.25,4.13-1.71.69-.23,2.06-.69,4.13-1.37,2.06-.69,4.3-1.43,6.71-2.23,2.41-.8,4.64-1.54,6.71-2.23,2.06-.69,3.55-1.25,4.47-1.71Z"/>
  </g>
  <g>
    <path class="cls-1" d="m0,412.36v-.82c0-.35,0-.7.02-1.04.02-.34.02-.65.02-.92v-.46s.02-.11.07-.24.1-.28.15-.46c.05-.18.1-.35.17-.51.06-.16.11-.29.15-.39.03-.1.11-.28.24-.56.13-.27.23-.46.29-.56.06-.1.15-.23.27-.39.11-.16.23-.33.34-.51.11-.18.22-.33.31-.46s.16-.21.19-.24c.1-.1.24-.26.44-.48.19-.23.4-.45.63-.68.23-.23.44-.43.65-.61.21-.18.35-.3.41-.36.03-.03.15-.1.34-.22s.41-.23.65-.34c.24-.11.47-.22.68-.31.21-.1.36-.18.46-.24.06-.03.2-.07.41-.12.21-.05.43-.1.65-.17.23-.06.44-.12.65-.17.21-.05.36-.07.46-.07.13-.03.39-.07.78-.12.39-.05.81-.1,1.26-.15.45-.05.9-.1,1.33-.14.44-.05.75-.09.95-.12h1.07c.16-.03.39-.07.68-.12.29-.05.58-.1.87-.17.29-.06.55-.12.78-.17.23-.05.36-.07.39-.07.06-.06.17-.23.32-.48s.22-.45.22-.58v-15.62c0-.13.14-.33.41-.61.27-.27.49-.44.65-.51.03,0,.14,0,.31-.02.18-.02.32-.02.41-.02.13,0,.3,0,.51.02.21.02.33.02.36.02s.11.07.24.22c.13.14.23.27.29.36.06.06.15.23.27.48.11.26.2.45.27.58.1.19.22.49.36.9.15.4.22.64.22.7v7.57c-.03.61-.06,1.55-.07,2.81-.02,1.26-.04,2.69-.07,4.29-.03,1.6-.07,3.27-.12,5.02s-.09,3.42-.12,5.02c-.03,1.6-.06,3.03-.1,4.29-.03,1.26-.06,2.2-.1,2.81,0,.1-.02.28-.07.53-.05.26-.1.53-.15.82s-.11.56-.17.8c-.06.24-.11.41-.15.51-.03.06-.09.19-.17.39-.08.19-.18.4-.29.63-.11.23-.23.45-.34.68-.11.23-.2.39-.27.48-.03.06-.11.16-.24.29-.13.13-.23.21-.29.24-.16.07-.4.15-.73.27-.32.11-.65.23-.99.34s-.65.22-.95.31-.48.15-.58.15c-.32,0-.59,0-.8.02-.21.02-.43.02-.65.02h-1.14c-.24,0-.48,0-.73-.02-.24-.02-.46-.02-.65-.02h-.34c-.06,0-.21-.02-.44-.07-.23-.05-.48-.1-.75-.15-.28-.05-.56-.1-.85-.17-.29-.07-.5-.11-.63-.15-.19-.06-.49-.16-.9-.29-.4-.13-.64-.21-.7-.24-.16-.06-.4-.2-.7-.41-.31-.21-.63-.43-.97-.65-.34-.23-.66-.44-.97-.65-.31-.21-.51-.36-.61-.46s-.26-.25-.48-.46c-.23-.21-.45-.43-.68-.65-.23-.23-.44-.44-.63-.63-.19-.19-.32-.32-.39-.39-.1-.13-.23-.36-.41-.68-.18-.32-.35-.66-.51-1.02-.16-.36-.31-.68-.46-.97s-.22-.48-.22-.58c0-.42,0-.78-.02-1.07-.02-.29-.02-.58-.02-.87v-.73Zm4.85-.29c0,.19,0,.46.02.8.02.34.02.53.02.56s.05.12.15.27c.1.14.2.31.32.48.11.18.23.35.34.51.11.16.2.27.27.34.06.1.18.23.34.39.16.16.33.32.51.48.18.16.34.32.48.48s.25.26.32.29c.1.06.26.15.48.27.23.11.45.23.68.34.23.11.43.22.61.31.18.1.3.15.36.15s.24,0,.53.02c.29.02.62.03.99.05.37.02.73.03,1.09.05.36.02.63.02.82.02.13,0,.32,0,.58-.02.26-.02.52-.03.78-.05.26-.02.49-.03.7-.05.21-.02.35-.02.41-.02l.53-.53v-10.81c0-.06-.14-.16-.41-.29-.28-.13-.49-.21-.65-.24-.36,0-.65,0-.87-.02-.23-.02-.45-.02-.68-.02h-1.12c-.23,0-.46,0-.7.02-.24.02-.45.02-.63.02h-.32c-.06,0-.19.02-.36.07-.18.05-.38.1-.61.15-.23.05-.45.1-.68.17-.23.07-.39.11-.48.15-.13.06-.32.16-.58.29-.26.13-.42.23-.48.29-.1.06-.23.17-.39.31-.16.15-.32.31-.48.48-.16.18-.32.34-.48.48-.16.15-.26.25-.29.32-.06.1-.15.25-.27.46-.11.21-.23.43-.34.65-.11.23-.22.44-.32.63s-.15.32-.15.39c0,.03,0,.23-.02.58-.02.36-.02.61-.02.78Z"/>
    <path class="cls-1" d="m30.79,422.5c-.58-.35-1.22-.74-1.92-1.16-.7-.42-1.35-.89-1.96-1.41-.61-.52-1.16-1.09-1.65-1.72-.48-.63-.79-1.35-.92-2.16-.03-.16-.06-.53-.07-1.11-.02-.58-.02-1.21-.02-1.89s0-1.34.02-1.99c.02-.65.04-1.13.07-1.45,0-1.26.29-2.46.87-3.61s1.37-2.11,2.38-2.89c.03-.03.15-.12.36-.27.21-.15.44-.31.7-.48.26-.18.52-.35.78-.51.26-.16.45-.27.58-.34.06-.03.18-.09.34-.17.16-.08.33-.17.51-.27.18-.1.34-.18.48-.24s.23-.11.27-.15c1.13-.42,2.3-.69,3.52-.8,1.21-.11,2.45-.1,3.71.02,1.13.16,2.07.39,2.81.68.74.29,1.35.69,1.82,1.19.47.5.84,1.12,1.12,1.87.27.74.51,1.65.7,2.72.16.61.15,1.16-.05,1.65s-.44,1.02-.73,1.6c-.16.23-.44.49-.82.8s-1.09.61-2.11.9-2.44.54-4.27.75c-1.83.21-4.26.31-7.3.31-.06.16-.12.41-.17.75-.05.34-.07.7-.07,1.09s.02.76.07,1.12.1.6.17.73c.13.26.41.53.85.82s.94.56,1.5.8c.57.24,1.15.44,1.75.61.6.16,1.09.23,1.48.19.1-.03.35-.09.75-.17.4-.08.83-.17,1.29-.27.45-.1.87-.19,1.26-.27.39-.08.63-.12.73-.12.52,0,1.08-.03,1.7-.1.61-.06,1.16-.05,1.65.05s.82.32.99.68c.18.36.09.95-.27,1.79,0,.06-.07.17-.22.31-.15.15-.3.31-.46.49-.16.18-.33.34-.51.48-.18.14-.31.25-.41.31-.16.1-.41.23-.75.41-.34.18-.68.35-1.02.51-.34.16-.65.31-.92.44-.28.13-.46.21-.56.24-1.36.19-2.72.24-4.07.14s-2.68-.4-3.98-.92Zm.92-16.15c-.16.36-.14.65.07.9.21.24.48.44.82.58.34.14.7.26,1.09.34.39.08.71.12.97.12.39-.1.88-.18,1.48-.24.6-.06,1.15-.19,1.65-.36.5-.18.86-.44,1.09-.78.23-.34.15-.85-.24-1.53-.03-.06-.13-.14-.29-.24-.16-.1-.35-.2-.56-.31-.21-.11-.42-.22-.63-.32-.21-.1-.36-.16-.46-.19-.97-.16-1.88-.04-2.74.36-.86.4-1.61.96-2.25,1.67Z"/>
    <path class="cls-1" d="m48.49,403.1c0-.45,0-1.06.02-1.82.02-.76.03-1.51.05-2.26.02-.74.03-1.41.05-1.99.02-.58.02-.92.02-1.02.03-.71.1-1.69.22-2.93.11-1.24.23-2.49.36-3.73.13-1.24.25-2.34.36-3.27.11-.94.2-1.44.27-1.5.71-.71,1.32-1.17,1.82-1.38.5-.21.94-.27,1.31-.17.37.1.69.31.97.65.27.34.54.7.8,1.09l.29,30.5c0,.06.05.21.15.44s.22.48.36.75.29.54.44.8c.15.26.27.45.36.58.06.06.22.23.46.48.24.26.51.53.8.82s.56.56.8.8c.24.24.4.4.46.46,0,.1.02.19.05.29.06.19.1.31.1.34,0,.06-.03.19-.1.39-.03.1-.05.19-.05.29s-.06.21-.17.34c-.11.13-.23.27-.36.41-.13.15-.27.27-.41.36s-.25.14-.32.14c-.03,0-.15,0-.36.02-.21.02-.45.03-.73.05-.27.02-.55.03-.82.05-.27.02-.49.02-.65.02s-.38,0-.65-.02c-.27-.02-.55-.03-.82-.05-.27-.02-.52-.03-.73-.05-.21-.02-.33-.02-.36-.02s-.11-.05-.22-.14c-.11-.1-.23-.22-.36-.36-.13-.14-.26-.28-.39-.41-.13-.13-.23-.24-.29-.34-.07-.13-.17-.32-.32-.58-.15-.26-.29-.52-.44-.8-.15-.27-.27-.52-.39-.75-.11-.23-.17-.37-.17-.44-.07-.36-.16-.97-.29-1.84-.13-.87-.26-1.78-.39-2.72-.13-.94-.25-1.83-.36-2.67-.11-.84-.19-1.42-.22-1.75,0-.06,0-.39-.02-.97-.02-.58-.03-1.25-.05-2.01-.02-.76-.03-1.52-.05-2.28-.02-.76-.02-1.37-.02-1.82Z"/>
    <path class="cls-1" d="m64.3,422.74c-.58-.19-1.06-.56-1.43-1.09-.37-.53-.65-1.13-.85-1.79-.19-.66-.33-1.33-.41-2.01-.08-.68-.14-1.28-.17-1.79,0-.26.04-.82.12-1.67.08-.86.17-1.79.27-2.79.1-1,.19-1.97.29-2.91s.18-1.65.24-2.13c.26-1.03.59-1.91.99-2.64.4-.73,1.04-1.45,1.92-2.16.29-.1.61-.14.95-.12.34.02.69.07,1.04.17.36.1.69.23,1.02.41.32.18.58.36.78.56,0,3.2-.02,5.92-.05,8.15-.03,2.23-.08,4.08-.15,5.55-.07,1.47-.13,2.63-.19,3.47-.07.84-.13,1.46-.19,1.87-.07.4-.13.66-.19.78-.07.11-.11.17-.15.17-.16,0-.44,0-.82.02-.39.02-.78.02-1.19.02s-.78,0-1.14-.02c-.36-.02-.58-.02-.68-.02Zm2.81-27.59c-.74-.19-1.4-.33-1.96-.41-.57-.08-1.04-.23-1.43-.44-.39-.21-.69-.54-.9-.99-.21-.45-.36-1.12-.46-1.99,0-.1.12-.38.36-.85.24-.47.44-.83.61-1.09.1-.13.27-.31.51-.56s.4-.36.46-.36c.39-.03.91-.08,1.58-.14.66-.06,1.33-.09,2.01-.07.68.02,1.31.1,1.89.27s.97.45,1.16.87c.1.55.16,1.11.19,1.67.03.57,0,1.11-.12,1.62-.11.52-.32.99-.63,1.41-.31.42-.75.78-1.33,1.07-.1.03-.4.05-.9.05s-.85-.02-1.04-.05Z"/>
    <path class="cls-1" d="m74.68,411.25c0-.19,0-.48.02-.87.02-.39.02-.6.02-.63.03-.1.1-.33.22-.7.11-.37.24-.78.39-1.21.15-.44.29-.86.44-1.29.15-.42.27-.74.36-.97.03-.13.11-.34.24-.63.13-.29.27-.58.41-.87s.28-.56.41-.8c.13-.24.23-.39.29-.46.03-.06.15-.2.36-.41.21-.21.44-.44.68-.68.24-.24.49-.48.73-.7.24-.23.43-.4.56-.53.13-.1.37-.27.73-.51.36-.24.57-.38.63-.41.16-.03.46-.1.9-.19s.9-.19,1.38-.29.95-.19,1.41-.27c.45-.08.78-.14.97-.17.32,0,.6,0,.82-.02.23-.02.44-.02.65-.02h1.07c.24,0,.48,0,.7.02.23.02.42.02.58.02h.29c.13,0,.37.06.73.19.36.13.58.23.68.29.1.06.22.16.36.29.15.13.29.27.44.41.15.14.27.28.39.41.11.13.17.21.17.24.03.03.06.18.07.44.02.26.02.44.02.53,0,.13,0,.3-.02.51-.02.21-.04.33-.07.36-.07.1-.33.27-.8.51-.47.24-.82.38-1.04.41-.1.03-.37.07-.82.12-.45.05-.94.1-1.45.15-.52.05-1,.1-1.45.14-.45.05-.74.07-.87.07s-.31.02-.56.07c-.24.05-.48.1-.73.14-.24.05-.47.1-.68.15-.21.05-.33.09-.36.12-.06,0-.27.12-.61.36s-.59.43-.75.56c-.07.03-.22.17-.46.41-.24.24-.4.41-.46.51-.13.13-.3.32-.51.56-.21.24-.41.48-.61.73-.19.24-.36.46-.51.65s-.22.31-.22.34c-.03.06-.1.23-.19.48-.1.26-.19.53-.29.82s-.19.57-.27.85c-.08.27-.14.48-.17.61,0,.03,0,.14-.02.31-.02.18-.02.3-.02.36,0,.1,0,.23.02.41.02.18.02.28.02.31.03.16.1.47.19.92.1.45.18.76.24.92.03.06.09.18.17.34.08.16.17.34.27.53s.19.38.27.56c.08.18.15.31.22.41l.48.48c.1.06.32.22.68.46.35.24.58.4.68.46.13.07.31.15.53.27.23.11.36.17.39.17s.25,0,.65.02c.4.02.74.02.99.02.19,0,.49,0,.9-.02.4-.02.64-.02.7-.02s.27-.06.63-.17c.35-.11.61-.2.78-.27.19-.1.56-.28,1.09-.56.53-.27,1.09-.56,1.67-.85s1.14-.57,1.67-.82c.53-.26.9-.44,1.09-.53.06,0,.22,0,.46-.02.24-.01.4-.02.46-.02.13,0,.31,0,.53.02.23.02.36.02.39.02.06,0,.21.06.44.17.23.11.39.2.48.27.06.06.16.15.29.27.13.11.19.19.19.22v.15c0,.06,0,.12.02.17.02.05.02.09.02.12,0,.06,0,.15-.02.27-.02.11-.02.19-.02.22-.03.06-.09.19-.17.36-.08.18-.17.36-.27.56s-.19.38-.29.56c-.1.18-.16.3-.19.36s-.13.18-.29.34c-.16.16-.34.34-.53.53s-.4.38-.61.56c-.21.18-.36.31-.46.41-.07.06-.18.16-.34.29-.16.13-.34.27-.53.41-.19.14-.38.28-.56.41-.18.13-.31.21-.41.24-.06.07-.21.15-.44.24-.23.1-.39.18-.48.24-.06.03-.27.11-.63.24-.36.13-.6.19-.73.19-.26.06-.61.16-1.07.29-.45.13-.71.19-.78.19-.03,0-.2,0-.51.02-.31.02-.54.02-.7.02s-.38,0-.65-.02c-.27-.02-.43-.02-.46-.02-.26-.03-.61-.09-1.04-.17-.44-.08-.88-.17-1.33-.27-.45-.1-.85-.19-1.19-.29s-.54-.16-.61-.19c-.06-.03-.25-.2-.56-.51-.31-.31-.65-.65-1.04-1.04l-1.16-1.16c-.39-.39-.7-.71-.92-.97-.03-.06-.11-.22-.22-.46-.11-.24-.19-.39-.22-.46-.07-.06-.23-.22-.48-.46-.26-.24-.4-.4-.44-.46-.07-.06-.15-.3-.27-.7-.11-.4-.19-.64-.22-.7-.03-.06-.11-.22-.24-.46-.13-.24-.19-.39-.19-.46-.06-.16-.16-.42-.29-.78-.13-.36-.19-.57-.19-.63,0-.03,0-.27-.02-.7-.02-.44-.02-.77-.02-.99Z"/>
    <path class="cls-1" d="m102.9,422.74c-.58-.19-1.06-.56-1.43-1.09-.37-.53-.65-1.13-.85-1.79-.19-.66-.33-1.33-.41-2.01-.08-.68-.14-1.28-.17-1.79,0-.26.04-.82.12-1.67.08-.86.17-1.79.27-2.79.1-1,.19-1.97.29-2.91s.18-1.65.24-2.13c.26-1.03.59-1.91.99-2.64.4-.73,1.04-1.45,1.92-2.16.29-.1.61-.14.95-.12.34.02.69.07,1.04.17.36.1.69.23,1.02.41.32.18.58.36.78.56,0,3.2-.02,5.92-.05,8.15-.03,2.23-.08,4.08-.15,5.55-.07,1.47-.13,2.63-.19,3.47-.07.84-.13,1.46-.19,1.87-.07.4-.13.66-.19.78-.07.11-.11.17-.15.17-.16,0-.44,0-.82.02-.39.02-.78.02-1.19.02s-.78,0-1.14-.02c-.36-.02-.58-.02-.68-.02Zm2.81-27.59c-.74-.19-1.4-.33-1.96-.41-.57-.08-1.04-.23-1.43-.44-.39-.21-.69-.54-.9-.99-.21-.45-.36-1.12-.46-1.99,0-.1.12-.38.36-.85.24-.47.44-.83.61-1.09.1-.13.27-.31.51-.56s.4-.36.46-.36c.39-.03.91-.08,1.58-.14.66-.06,1.33-.09,2.01-.07.68.02,1.31.1,1.89.27s.97.45,1.16.87c.1.55.16,1.11.19,1.67.03.57,0,1.11-.12,1.62-.11.52-.32.99-.63,1.41-.31.42-.75.78-1.33,1.07-.1.03-.4.05-.9.05s-.85-.02-1.04-.05Z"/>
    <path class="cls-1" d="m112.99,411.59v-.56c0-.24,0-.48.02-.7.02-.23.02-.52.02-.87,0-.06.02-.22.07-.46.05-.24.11-.5.19-.78.08-.27.15-.54.22-.8.06-.26.13-.47.19-.63.19-.65.45-1.31.78-1.99.32-.68.71-1.31,1.16-1.89.36-.55.81-1.03,1.36-1.43.55-.4,1.08-.8,1.6-1.19,1.42-.45,2.79-.78,4.1-.97,1.31-.19,2.5-.24,3.59-.14,1.08.1,2.02.34,2.81.73.79.39,1.41.94,1.87,1.65.03.07.13.22.29.46.16.24.29.43.39.56.13.23.31.54.56.95.24.4.38.62.41.65,0,.06.05.22.15.46.1.24.19.52.29.85.1.32.19.64.29.95.1.31.18.56.24.75.13.39.22.77.27,1.14s.09.82.12,1.33c0,.74-.07,1.47-.22,2.18-.15.71-.32,1.44-.51,2.18-.03.1-.09.28-.17.56-.08.27-.17.57-.27.87-.1.31-.19.61-.29.9s-.16.5-.19.63c-.45,1.1-1.1,2.1-1.94,3.01-.84.91-1.83,1.63-2.96,2.18-.1,0-.27.03-.53.1-.26.06-.53.14-.82.22-.29.08-.56.15-.8.22-.24.07-.4.11-.46.15-.06.03-.15.08-.27.14-.11.07-.24.14-.39.22-.15.08-.28.14-.41.19-.13.05-.21.07-.24.07-.06,0-.23,0-.48.02-.26.02-.47.02-.63.02s-.39,0-.68-.02c-.29-.02-.47-.02-.53-.02-.03,0-.18-.03-.44-.1-.26-.07-.44-.13-.53-.19-.07-.03-.28-.15-.65-.34-.37-.19-.59-.32-.65-.39-.55,0-1.06-.18-1.53-.53-.47-.35-.95-.81-1.43-1.36-.03-.03-.17-.22-.41-.56-.24-.34-.43-.59-.56-.75-.26-.39-.49-.77-.68-1.14s-.39-.75-.58-1.14c-.03-.03-.1-.22-.19-.56-.1-.34-.16-.59-.19-.75-.06-.23-.13-.55-.19-.97-.06-.42-.1-.65-.1-.68v-.34c0-.19,0-.42-.02-.68-.02-.26-.02-.52-.02-.78v-.63Zm5.14-.58v.48c0,.19,0,.39.02.58.02.19.02.36.02.51v.27c0,.06.02.19.05.39.03.19.07.4.12.63s.1.44.17.63c.06.19.11.34.15.44.06.16.19.44.39.85s.32.65.39.75c.1.1.31.32.63.65.32.34.55.54.68.61.65.36,1.38.49,2.21.39.82-.1,1.56-.31,2.21-.63.1-.19.25-.35.46-.46.21-.11.38-.23.51-.36.1-.03.31-.19.65-.48s.57-.47.7-.53c.03-.03.07-.06.12-.1s.09-.06.12-.1c.06-.03.11-.12.15-.27.03-.15.06-.25.1-.31.03,0,.07-.04.12-.12.05-.08.09-.14.12-.17.06-.06.15-.27.27-.61.11-.34.19-.56.22-.65.06-.1.14-.27.22-.53.08-.26.12-.42.12-.48v-.27c0-.14,0-.31.02-.51.02-.19.02-.39.02-.58v-.95c0-.21,0-.41-.02-.61-.02-.19-.02-.36-.02-.51v-.27c0-.06-.04-.22-.12-.46-.08-.24-.15-.43-.22-.56-.29-.84-.65-1.43-1.09-1.77-.44-.34-.99-.67-1.67-.99-.26-.13-.5-.21-.73-.24-.23-.03-.49-.06-.78-.1-.91,0-1.79.11-2.67.34-.19.03-.4.14-.61.32-.21.18-.44.3-.7.36-.07.07-.15.16-.27.29-.11.13-.24.27-.39.41-.15.14-.27.27-.39.39-.11.11-.19.19-.22.22-.06.03-.15.18-.27.44-.11.26-.2.47-.27.63-.06.16-.16.4-.29.73-.13.32-.19.5-.19.53,0,.06,0,.32-.02.78-.02.45-.02.79-.02,1.02Z"/>
    <path class="cls-1" d="m137.09,417.74c0-.16,0-.37.02-.63.02-.26.02-.42.02-.48.03-.13.11-.33.24-.61.13-.27.23-.43.29-.46h.29c.06,0,.15,0,.24-.02.1-.02.18-.02.24-.02.1,0,.26,0,.48.02.23.02.36.02.39.02.06,0,.19.05.39.15s.4.21.63.34c.23.13.44.25.65.36.21.11.36.19.46.22.06.07.24.25.53.56.29.31.47.49.53.56.1.06.28.17.56.31.27.15.46.22.56.22.03,0,.19,0,.48.02s.52.02.68.02h.58c.13,0,.26-.02.39-.05.03,0,.11-.14.24-.41.13-.27.23-.49.29-.65v-.58c-.03-.1-.07-.22-.12-.39-.05-.16-.11-.33-.17-.51-.06-.18-.12-.33-.17-.46-.05-.13-.07-.21-.07-.24-.06-.1-.2-.24-.41-.44-.21-.19-.43-.4-.65-.63-.23-.23-.44-.44-.63-.65-.19-.21-.34-.35-.44-.41-.07-.03-.2-.1-.41-.22-.21-.11-.44-.23-.68-.36-.24-.13-.47-.24-.68-.34-.21-.1-.35-.16-.41-.19-.13-.06-.36-.2-.68-.41-.32-.21-.65-.43-.99-.65-.34-.23-.66-.44-.97-.63-.31-.19-.51-.34-.61-.44-.07-.06-.23-.23-.51-.51-.27-.27-.46-.46-.56-.56-.07-.1-.16-.23-.29-.41-.13-.18-.25-.35-.36-.51-.11-.16-.21-.31-.29-.46-.08-.14-.12-.23-.12-.27,0-.32,0-.59-.02-.8-.02-.21-.02-.43-.02-.65v-1.11c0-.26,0-.51.02-.75.02-.24.02-.45.02-.63v-.31c0-.1.07-.28.22-.56.15-.27.25-.46.31-.56.06-.1.2-.25.41-.46.21-.21.43-.43.65-.65.23-.23.44-.44.65-.63.21-.19.36-.32.46-.39.03-.03.18-.11.44-.24.26-.13.47-.23.63-.29.19-.1.49-.21.9-.34.4-.13.64-.19.7-.19.03,0,.22,0,.56-.02.34-.02.61-.02.8-.02.16,0,.42,0,.78.02.36.02.55.02.58.02s.14.02.31.05c.18.03.38.08.61.14.23.06.45.13.68.19.23.06.4.11.53.15.19.06.49.16.9.29.4.13.64.21.7.24.13.06.4.23.8.51.4.27.69.46.85.56l1.07,1.07c.06.1.15.23.27.41.11.18.23.35.34.51.11.16.22.31.31.46.1.14.15.23.15.27s0,.19.02.46c.02.28.02.49.02.65s0,.36-.02.61c-.02.24-.02.38-.02.41-.03.06-.18.16-.44.29-.26.13-.47.21-.63.24-.03,0-.15,0-.36.02-.21.02-.38.02-.51.02h-.44c-.1,0-.19-.02-.29-.05-.07-.03-.2-.12-.41-.27-.21-.15-.44-.32-.68-.51s-.47-.37-.68-.53c-.21-.16-.35-.26-.41-.29-.1-.06-.28-.17-.56-.32-.27-.14-.44-.22-.51-.22-.29,0-.53,0-.7-.02-.18-.02-.35-.02-.51-.02h-.39c-.23,0-.55,0-.97.02-.42.02-.65.02-.68.02s-.11.07-.24.22c-.13.15-.23.25-.29.32-.06.13-.17.33-.31.61-.15.27-.22.43-.22.46,0,.1.05.24.15.44s.2.41.32.65c.11.24.23.46.34.65.11.19.2.34.27.44.03.03.26.18.68.44.42.26.74.47.97.63l3.73,2.13c.13.1.31.23.56.39s.48.32.7.48c.23.16.43.32.61.48.18.16.28.26.32.29.1.13.23.35.41.65.18.31.35.63.53.97.18.34.33.66.46.97.13.31.19.51.19.61,0,.06,0,.23.02.48.02.26.03.56.05.9.02.34.02.69.02,1.04v1.48c0,.31,0,.63-.02.97-.02.34-.03.66-.05.97-.02.31-.02.53-.02.65-.06.06-.17.17-.31.31-.15.15-.3.31-.46.48-.16.18-.32.34-.48.48-.16.15-.27.25-.34.32-.13.06-.4.16-.8.29-.4.13-.67.21-.8.24-.07,0-.33,0-.8.02-.47.02-.83.02-1.09.02s-.63,0-1.12-.02-.74-.02-.78-.02c-.1,0-.36-.07-.78-.22-.42-.15-.71-.25-.87-.31-.19-.1-.46-.23-.8-.39-.34-.16-.68-.32-1.02-.49-.34-.16-.65-.31-.92-.46-.28-.15-.43-.23-.46-.27-.06-.03-.2-.15-.41-.34-.21-.19-.43-.4-.65-.63-.23-.23-.44-.45-.65-.68-.21-.23-.36-.4-.46-.53-.07-.06-.17-.24-.32-.53s-.22-.47-.22-.53c0-.03,0-.19-.02-.46-.02-.27-.02-.48-.02-.61Z"/>
    <path class="cls-1" d="m154.69,410.76c.1-1.39.18-2.5.24-3.35.06-.84.23-1.58.51-2.23.27-.65.71-1.28,1.31-1.92.6-.63,1.48-1.43,2.64-2.4.1-.06.27-.17.51-.31.24-.14.51-.29.8-.44.29-.15.56-.27.8-.39s.41-.19.51-.22c.03,0,.14,0,.31-.02.18-.02.38-.02.61-.02s.44,0,.65-.02c.21-.02.38-.02.51-.02.23,0,.57.02,1.04.05.47.03.73.05.8.05,2.42.58,4.25,1.67,5.48,3.27,1.23,1.6,2.02,3.58,2.38,5.94.03.16.1.56.22,1.19.11.63.24,1.32.39,2.06.15.74.28,1.44.41,2.09.13.65.23,1.05.29,1.21.06.16.3.5.7,1.02.4.52.83,1.07,1.28,1.65.45.58.88,1.12,1.29,1.62.4.5.64.82.7.95.03.1.08.27.15.53.06.26.13.54.19.85.06.31.13.59.19.85.06.26.1.44.1.53-.06,0-.19,0-.39-.02s-.4-.03-.63-.05c-.23-.02-.44-.03-.63-.05s-.31-.02-.34-.02c-.1-.03-.34-.11-.73-.24-.39-.13-.8-.27-1.24-.41-.44-.14-.85-.28-1.24-.41s-.63-.21-.73-.24h-1.31c-.1.03-.34.12-.73.27-.39.15-.8.29-1.24.44-.44.14-.85.28-1.24.41-.39.13-.63.19-.73.19-.03,0-.16,0-.39.02-.23.02-.48.03-.78.05-.29.02-.58.03-.87.05-.29.02-.52.02-.68.02s-.38,0-.65-.02c-.27-.02-.54-.03-.8-.05-.26-.02-.49-.03-.7-.05-.21-.02-.33-.02-.36-.02-.23-.06-.6-.21-1.12-.44-.52-.22-1.05-.48-1.6-.75-.55-.27-1.07-.55-1.55-.82-.48-.27-.81-.48-.97-.61-.78-.71-1.39-1.42-1.84-2.13-.45-.71-.79-1.46-1.02-2.23-.23-.78-.37-1.6-.44-2.47-.06-.87-.1-1.84-.1-2.91Zm5.19.97c0,.19.02.49.05.9.03.4.05.64.05.7,0,.03.04.14.12.31.08.18.18.38.29.61.11.23.23.44.34.65.11.21.22.36.31.46.06.13.23.32.49.58.26.26.44.42.53.48.1.07.26.15.48.27.23.11.44.23.65.34.21.11.4.21.58.29.18.08.3.12.36.12.03,0,.14,0,.32.02.18.02.38.02.61.02s.44,0,.65.02c.21.02.38.02.51.02.97.03,1.74-.23,2.3-.8.57-.57.95-1.29,1.16-2.16.21-.87.25-1.81.12-2.81-.13-1-.41-1.94-.85-2.81-.44-.87-1.02-1.6-1.75-2.18s-1.58-.87-2.55-.87c-.1,0-.23,0-.39.02-.16.02-.32.03-.48.05-.16.02-.31.03-.44.05-.13.02-.21.02-.24.02-.07,0-.19.09-.39.27-.19.18-.4.37-.61.58-.21.21-.42.43-.63.65-.21.23-.36.4-.46.53-.06.06-.15.19-.24.39l-.31.63c-.11.23-.22.44-.32.65-.1.21-.16.36-.19.46-.03.19-.05.39-.05.58-.03.16-.05.33-.05.51v.41Z"/>
    <path class="cls-1" d="m206.29,411.25c0-.19,0-.48.02-.87.02-.39.02-.6.02-.63.03-.1.1-.33.22-.7.11-.37.24-.78.39-1.21.15-.44.29-.86.44-1.29.15-.42.27-.74.36-.97.03-.13.11-.34.24-.63.13-.29.27-.58.41-.87s.28-.56.41-.8c.13-.24.23-.39.29-.46.03-.06.15-.2.36-.41.21-.21.44-.44.68-.68.24-.24.49-.48.73-.7.24-.23.43-.4.56-.53.13-.1.37-.27.73-.51.36-.24.57-.38.63-.41.16-.03.46-.1.9-.19s.9-.19,1.38-.29.95-.19,1.41-.27c.45-.08.78-.14.97-.17.32,0,.6,0,.82-.02.23-.02.44-.02.65-.02h1.07c.24,0,.48,0,.7.02.23.02.42.02.58.02h.29c.13,0,.37.06.73.19.36.13.58.23.68.29.1.06.22.16.36.29.15.13.29.27.44.41.15.14.27.28.39.41.11.13.17.21.17.24.03.03.06.18.07.44.02.26.02.44.02.53,0,.13,0,.3-.02.51-.02.21-.04.33-.07.36-.07.1-.33.27-.8.51-.47.24-.82.38-1.04.41-.1.03-.37.07-.82.12-.45.05-.94.1-1.45.15-.52.05-1,.1-1.45.14-.45.05-.74.07-.87.07s-.31.02-.56.07c-.24.05-.48.1-.73.14-.24.05-.47.1-.68.15-.21.05-.33.09-.36.12-.06,0-.27.12-.61.36s-.59.43-.75.56c-.07.03-.22.17-.46.41-.24.24-.4.41-.46.51-.13.13-.3.32-.51.56-.21.24-.41.48-.61.73-.19.24-.36.46-.51.65s-.22.31-.22.34c-.03.06-.1.23-.19.48-.1.26-.19.53-.29.82s-.19.57-.27.85c-.08.27-.14.48-.17.61,0,.03,0,.14-.02.31-.02.18-.02.3-.02.36,0,.1,0,.23.02.41.02.18.02.28.02.31.03.16.1.47.19.92.1.45.18.76.24.92.03.06.09.18.17.34.08.16.17.34.27.53s.19.38.27.56c.08.18.15.31.22.41l.48.48c.1.06.32.22.68.46.35.24.58.4.68.46.13.07.31.15.53.27.23.11.36.17.39.17s.25,0,.65.02c.4.02.74.02.99.02.19,0,.49,0,.9-.02.4-.02.64-.02.7-.02s.27-.06.63-.17c.35-.11.61-.2.78-.27.19-.1.56-.28,1.09-.56.53-.27,1.09-.56,1.67-.85s1.14-.57,1.67-.82c.53-.26.9-.44,1.09-.53.06,0,.22,0,.46-.02.24-.01.4-.02.46-.02.13,0,.31,0,.53.02.23.02.36.02.39.02.06,0,.21.06.44.17.23.11.39.2.48.27.06.06.16.15.29.27.13.11.19.19.19.22v.15c0,.06,0,.12.02.17.02.05.02.09.02.12,0,.06,0,.15-.02.27-.02.11-.02.19-.02.22-.03.06-.09.19-.17.36-.08.18-.17.36-.27.56s-.19.38-.29.56c-.1.18-.16.3-.19.36s-.13.18-.29.34c-.16.16-.34.34-.53.53s-.4.38-.61.56c-.21.18-.36.31-.46.41-.07.06-.18.16-.34.29-.16.13-.34.27-.53.41-.19.14-.38.28-.56.41-.18.13-.31.21-.41.24-.06.07-.21.15-.44.24-.23.1-.39.18-.48.24-.06.03-.27.11-.63.24-.36.13-.6.19-.73.19-.26.06-.61.16-1.07.29-.45.13-.71.19-.78.19-.03,0-.2,0-.51.02-.31.02-.54.02-.7.02s-.38,0-.65-.02c-.27-.02-.43-.02-.46-.02-.26-.03-.61-.09-1.04-.17-.44-.08-.88-.17-1.33-.27-.45-.1-.85-.19-1.19-.29s-.54-.16-.61-.19c-.06-.03-.25-.2-.56-.51-.31-.31-.65-.65-1.04-1.04l-1.16-1.16c-.39-.39-.7-.71-.92-.97-.03-.06-.11-.22-.22-.46-.11-.24-.19-.39-.22-.46-.07-.06-.23-.22-.48-.46-.26-.24-.4-.4-.44-.46-.07-.06-.15-.3-.27-.7-.11-.4-.19-.64-.22-.7-.03-.06-.11-.22-.24-.46-.13-.24-.19-.39-.19-.46-.06-.16-.16-.42-.29-.78-.13-.36-.19-.57-.19-.63,0-.03,0-.27-.02-.7-.02-.44-.02-.77-.02-.99Z"/>
    <path class="cls-1" d="m230.93,411.59v-.56c0-.24,0-.48.02-.7.02-.23.02-.52.02-.87,0-.06.02-.22.07-.46.05-.24.11-.5.19-.78.08-.27.15-.54.22-.8.06-.26.13-.47.19-.63.19-.65.45-1.31.78-1.99.32-.68.71-1.31,1.16-1.89.36-.55.81-1.03,1.36-1.43.55-.4,1.08-.8,1.6-1.19,1.42-.45,2.79-.78,4.1-.97,1.31-.19,2.5-.24,3.59-.14,1.08.1,2.02.34,2.81.73.79.39,1.41.94,1.87,1.65.03.07.13.22.29.46.16.24.29.43.39.56.13.23.31.54.56.95.24.4.38.62.41.65,0,.06.05.22.15.46.1.24.19.52.29.85.1.32.19.64.29.95.1.31.18.56.24.75.13.39.22.77.27,1.14s.09.82.12,1.33c0,.74-.07,1.47-.22,2.18-.15.71-.32,1.44-.51,2.18-.03.1-.09.28-.17.56-.08.27-.17.57-.27.87-.1.31-.19.61-.29.9s-.16.5-.19.63c-.45,1.1-1.1,2.1-1.94,3.01-.84.91-1.83,1.63-2.96,2.18-.1,0-.27.03-.53.1-.26.06-.53.14-.82.22-.29.08-.56.15-.8.22-.24.07-.4.11-.46.15-.06.03-.15.08-.27.14-.11.07-.24.14-.39.22-.15.08-.28.14-.41.19-.13.05-.21.07-.24.07-.06,0-.23,0-.48.02-.26.02-.47.02-.63.02s-.39,0-.68-.02c-.29-.02-.47-.02-.53-.02-.03,0-.18-.03-.44-.1-.26-.07-.44-.13-.53-.19-.07-.03-.28-.15-.65-.34-.37-.19-.59-.32-.65-.39-.55,0-1.06-.18-1.53-.53-.47-.35-.95-.81-1.43-1.36-.03-.03-.17-.22-.41-.56-.24-.34-.43-.59-.56-.75-.26-.39-.49-.77-.68-1.14s-.39-.75-.58-1.14c-.03-.03-.1-.22-.19-.56-.1-.34-.16-.59-.19-.75-.06-.23-.13-.55-.19-.97-.06-.42-.1-.65-.1-.68v-.34c0-.19,0-.42-.02-.68-.02-.26-.02-.52-.02-.78v-.63Zm5.14-.58v.48c0,.19,0,.39.02.58.02.19.02.36.02.51v.27c0,.06.02.19.05.39.03.19.07.4.12.63s.1.44.17.63c.06.19.11.34.15.44.06.16.19.44.39.85s.32.65.39.75c.1.1.31.32.63.65.32.34.55.54.68.61.65.36,1.38.49,2.21.39.82-.1,1.56-.31,2.21-.63.1-.19.25-.35.46-.46.21-.11.38-.23.51-.36.1-.03.31-.19.65-.48s.57-.47.7-.53c.03-.03.07-.06.12-.1s.09-.06.12-.1c.06-.03.11-.12.15-.27.03-.15.06-.25.1-.31.03,0,.07-.04.12-.12.05-.08.09-.14.12-.17.06-.06.15-.27.27-.61.11-.34.19-.56.22-.65.06-.1.14-.27.22-.53.08-.26.12-.42.12-.48v-.27c0-.14,0-.31.02-.51.02-.19.02-.39.02-.58v-.95c0-.21,0-.41-.02-.61-.02-.19-.02-.36-.02-.51v-.27c0-.06-.04-.22-.12-.46-.08-.24-.15-.43-.22-.56-.29-.84-.65-1.43-1.09-1.77-.44-.34-.99-.67-1.67-.99-.26-.13-.5-.21-.73-.24-.23-.03-.49-.06-.78-.1-.91,0-1.79.11-2.67.34-.19.03-.4.14-.61.32-.21.18-.44.3-.7.36-.07.07-.15.16-.27.29-.11.13-.24.27-.39.41-.15.14-.27.27-.39.39-.11.11-.19.19-.22.22-.06.03-.15.18-.27.44-.11.26-.2.47-.27.63-.06.16-.16.4-.29.73-.13.32-.19.5-.19.53,0,.06,0,.32-.02.78-.02.45-.02.79-.02,1.02Z"/>
    <path class="cls-1" d="m264.48,403.68c-.06,0-.15,0-.24.02-.1.02-.19.02-.29.02h-.34c-.06,0-.21.06-.44.17-.23.11-.37.2-.44.27-.06.06-.2.21-.41.44-.21.23-.35.37-.41.44-.07.06-.15.2-.27.41-.11.21-.17.35-.17.41s0,.36-.02.9c-.02.53-.02.96-.02,1.28,0,.26,0,.65.02,1.16.02.52.02.81.02.87,0,.13.04.42.12.87.08.45.18.94.29,1.45.11.52.21,1,.29,1.46.08.45.12.74.12.87,0,.06,0,.31.02.73.02.42.02.73.02.92,0,.26,0,.6-.02,1.02-.02.42-.02.66-.02.73s-.05.31-.15.75c-.1.44-.18.75-.24.95-.07.16-.15.41-.27.75-.11.34-.17.52-.17.56-.1.13-.31.35-.63.65-.32.31-.53.49-.63.56-.03,0-.15,0-.34.02-.19.02-.34.02-.44.02s-.27,0-.51-.02c-.24-.02-.38-.02-.41-.02-.1-.03-.25-.09-.46-.17-.21-.08-.33-.15-.36-.22-.03-.03-.09-.12-.17-.27-.08-.14-.17-.31-.27-.48-.1-.18-.19-.35-.27-.53-.08-.18-.14-.32-.17-.41-.07-.1-.15-.31-.24-.65-.1-.34-.16-.54-.19-.61-.03-.13-.09-.44-.17-.95-.08-.5-.17-1.04-.27-1.62s-.19-1.11-.27-1.6c-.08-.48-.12-.79-.12-.92-.03-.1-.07-.25-.1-.46-.03-.21-.07-.43-.12-.65s-.1-.44-.15-.63-.07-.32-.07-.39-.05-.26-.15-.58c-.1-.32-.19-.68-.29-1.07s-.19-.75-.27-1.09c-.08-.34-.12-.56-.12-.65v-.36c0-.21,0-.44-.02-.7-.02-.26-.02-.53-.02-.8v-1.16c0-.24,0-.5.02-.78.02-.27.02-.52.02-.75v-.48c0-.06.05-.21.15-.44s.18-.37.24-.44c.16-.16.4-.4.73-.7.32-.31.52-.49.58-.56h.19c.06,0,.13,0,.19-.02.06-.02.13-.02.19-.02.03,0,.09,0,.17.02.08.02.15.02.22.02h.24s.1.06.22.17c.11.11.2.2.27.27,0,.03.04.11.12.24.08.13.17.26.27.39.1.13.19.26.27.39.08.13.14.21.17.24.03.03.06.05.1.05h.19s.05,0,.05-.02c0-.02.02-.02.05-.02.06-.1.19-.25.39-.46s.4-.43.63-.65c.23-.23.44-.43.65-.61.21-.18.36-.3.46-.36.1-.1.27-.21.53-.34.26-.13.52-.27.78-.41.26-.14.51-.27.75-.36.24-.1.41-.16.51-.19h.68c.19,0,.38,0,.56-.02.18-.02.33-.02.46-.02h.53c.23,0,.45,0,.68.02.23.02.42.02.58.02h.29c.1,0,.31.06.63.17.32.11.53.2.63.27s.31.2.63.41c.32.21.55.36.68.46.06.06.2.2.41.41.21.21.35.35.41.41.1.13.23.34.39.63.16.29.33.59.51.9.18.31.34.6.48.87.15.28.25.46.32.56.03.03.06.13.1.29.03.16.07.34.12.53s.09.37.12.53c.03.16.06.26.1.29.03.07.09.15.17.27.08.11.15.19.22.22.03-.1.08-.25.15-.46.06-.21.15-.43.24-.65s.19-.44.27-.63c.08-.19.15-.32.22-.39.03-.03.12-.16.27-.39.15-.23.31-.48.48-.75.18-.27.36-.54.53-.8.18-.26.31-.47.41-.63,0-.06.06-.14.17-.22.11-.08.2-.14.27-.17.03-.03.1-.09.22-.17.11-.08.24-.17.39-.27s.27-.18.39-.24c.11-.06.19-.11.22-.14.06-.03.21-.11.44-.24.23-.13.37-.21.44-.24.06,0,.15-.05.24-.15s.16-.18.19-.24c.19-.03.55-.06,1.07-.1.52-.03,1.07-.07,1.65-.12.58-.05,1.14-.1,1.67-.15.53-.05.91-.07,1.14-.07h.39c.1.03.24.1.44.19s.32.18.39.24c.1.1.27.26.53.48.26.23.52.48.78.75.26.27.51.53.75.78.24.24.41.41.51.51.03.06.16.27.39.61.23.34.37.56.44.65.03.1.1.23.19.39.1.16.19.34.29.53s.18.36.24.51c.06.15.11.23.15.27.03.1.1.36.22.8.11.44.19.75.22.95,0,.06.02.24.05.53.03.29.07.6.12.92.05.32.1.63.15.92s.09.47.12.53c0,.06.06.21.17.44.11.23.19.37.22.44.06.23.15.61.27,1.14.11.53.17.87.17.99v.44c0,.26,0,.57.02.95.02.37.02.74.02,1.09v1.77c0,.37,0,.74-.02,1.09-.02.36-.02.67-.02.95v.46c0,.06-.02.17-.05.31-.03.14-.07.31-.12.48-.05.18-.1.35-.15.51-.05.16-.09.29-.12.39-.03.07-.1.2-.19.41s-.16.35-.19.41c-.1.13-.26.3-.48.51-.23.21-.36.33-.39.36-.03.03-.08.05-.15.05h-.24c-.06,0-.15,0-.27-.02-.11-.02-.19-.02-.22-.02-.03-.03-.16-.1-.39-.19-.23-.1-.37-.18-.44-.24-.03-.03-.11-.1-.22-.19-.11-.1-.19-.18-.22-.24-.03-.06-.09-.18-.17-.34-.08-.16-.17-.33-.27-.51-.1-.18-.18-.35-.24-.51-.07-.16-.11-.27-.15-.34-.07-.1-.15-.36-.24-.8-.1-.44-.16-.72-.19-.85,0-.06-.02-.27-.07-.63s-.1-.76-.15-1.21-.09-.9-.12-1.36c-.03-.45-.06-.81-.1-1.07v-.44s.02-.17.07-.41c.05-.24.1-.51.15-.8s.1-.57.15-.82c.05-.26.07-.42.07-.48s0-.3.02-.7c.02-.4.02-.7.02-.9,0-.06,0-.17-.02-.31-.02-.15-.02-.3-.02-.46v-.53s-.03-.14-.1-.32c-.06-.18-.15-.38-.24-.61-.1-.23-.19-.45-.29-.68-.1-.23-.18-.4-.24-.53-.03-.1-.08-.23-.15-.41-.06-.18-.15-.35-.24-.53s-.19-.34-.27-.48c-.08-.15-.14-.23-.17-.27-.06-.06-.14-.15-.22-.27-.08-.11-.14-.17-.17-.17s-.22,0-.56-.02c-.34-.02-.59-.02-.75-.02s-.4,0-.73.02c-.32.02-.5.02-.53.02-.07,0-.2.06-.41.17-.21.11-.35.2-.41.27-.1.1-.26.24-.48.44-.23.19-.44.4-.65.63-.21.23-.41.44-.61.65s-.32.35-.39.41c-.06.03-.2.26-.41.68s-.35.76-.41,1.02c-.03.03-.11.21-.22.53-.11.32-.2.55-.27.68-.07.29-.16.67-.29,1.14-.13.47-.26.93-.39,1.38-.13.45-.25.84-.36,1.16-.11.32-.17.5-.17.53-.03.16-.09.51-.17,1.04-.08.53-.17,1.12-.27,1.75-.1.63-.19,1.21-.27,1.75-.08.53-.14.87-.17.99l-.44,1.31c-.03.06-.09.2-.17.41-.08.21-.15.35-.22.41-.1.13-.25.36-.46.68-.21.32-.35.52-.41.58-.06.1-.21.26-.44.48-.23.23-.36.34-.39.34s-.15,0-.36.02c-.21.02-.36.02-.46.02s-.27,0-.51-.02c-.24-.02-.38-.02-.41-.02l-.15-.15c-.07-.06-.11-.1-.15-.12-.03-.02-.06-.06-.1-.12-.06-.07-.14-.2-.22-.41-.08-.21-.15-.36-.22-.46-.03-.13-.1-.35-.19-.68-.1-.32-.16-.52-.19-.58,0-.03-.02-.16-.07-.39-.05-.23-.1-.48-.15-.75-.05-.27-.1-.54-.15-.8-.05-.26-.09-.45-.12-.58,0-.16-.04-.55-.12-1.16-.08-.61-.17-1.28-.27-2.01s-.19-1.41-.27-2.04c-.08-.63-.14-1.03-.17-1.19-.03-.1-.06-.27-.1-.51-.03-.24-.06-.5-.1-.78-.03-.27-.06-.52-.1-.75-.03-.23-.06-.39-.1-.48-.03-.13-.11-.4-.22-.82-.11-.42-.19-.71-.22-.87-.06-.13-.14-.33-.22-.61-.08-.27-.17-.54-.27-.8-.1-.26-.18-.49-.24-.7-.07-.21-.11-.35-.15-.41-.03-.06-.15-.26-.36-.58-.21-.32-.36-.55-.46-.68-.1-.1-.25-.26-.46-.48-.21-.23-.35-.35-.41-.39-.03,0-.15,0-.34-.02-.19-.02-.34-.02-.44-.02Z"/>
    <path class="cls-1" d="m297.94,422.74c-.58-.19-1.06-.56-1.43-1.09-.37-.53-.65-1.13-.85-1.79-.19-.66-.33-1.33-.41-2.01-.08-.68-.14-1.28-.17-1.79,0-.26.04-.82.12-1.67.08-.86.17-1.79.27-2.79.1-1,.19-1.97.29-2.91s.18-1.65.24-2.13c.26-1.03.59-1.91.99-2.64.4-.73,1.04-1.45,1.92-2.16.29-.1.61-.14.95-.12.34.02.69.07,1.04.17.36.1.69.23,1.02.41.32.18.58.36.78.56,0,3.2-.02,5.92-.05,8.15-.03,2.23-.08,4.08-.15,5.55-.07,1.47-.13,2.63-.19,3.47-.07.84-.13,1.46-.19,1.87-.07.4-.13.66-.19.78-.07.11-.11.17-.15.17-.16,0-.44,0-.82.02-.39.02-.78.02-1.19.02s-.78,0-1.14-.02c-.36-.02-.58-.02-.68-.02Zm2.81-27.59c-.74-.19-1.4-.33-1.96-.41-.57-.08-1.04-.23-1.43-.44-.39-.21-.69-.54-.9-.99-.21-.45-.36-1.12-.46-1.99,0-.1.12-.38.36-.85.24-.47.44-.83.61-1.09.1-.13.27-.31.51-.56s.4-.36.46-.36c.39-.03.91-.08,1.58-.14.66-.06,1.33-.09,2.01-.07.68.02,1.31.1,1.89.27s.97.45,1.16.87c.1.55.16,1.11.19,1.67.03.57,0,1.11-.12,1.62-.11.52-.32.99-.63,1.41-.31.42-.75.78-1.33,1.07-.1.03-.4.05-.9.05s-.85-.02-1.04-.05Z"/>
    <path class="cls-1" d="m307.45,412.36v-.82c0-.35,0-.7.02-1.04.02-.34.02-.65.02-.92v-.46s.02-.11.07-.24.1-.28.15-.46c.05-.18.1-.35.17-.51.06-.16.11-.29.15-.39.03-.1.11-.28.24-.56.13-.27.23-.46.29-.56.06-.1.15-.23.27-.39.11-.16.23-.33.34-.51.11-.18.22-.33.31-.46s.16-.21.19-.24c.1-.1.24-.26.44-.48.19-.23.4-.45.63-.68.23-.23.44-.43.65-.61.21-.18.35-.3.41-.36.03-.03.15-.1.34-.22s.41-.23.65-.34c.24-.11.47-.22.68-.31.21-.1.36-.18.46-.24.06-.03.2-.07.41-.12.21-.05.43-.1.65-.17.23-.06.44-.12.65-.17.21-.05.36-.07.46-.07.13-.03.39-.07.78-.12.39-.05.81-.1,1.26-.15.45-.05.9-.1,1.33-.14.44-.05.75-.09.95-.12h1.07c.16-.03.39-.07.68-.12.29-.05.58-.1.87-.17.29-.06.55-.12.78-.17.23-.05.36-.07.39-.07.06-.06.17-.23.32-.48s.22-.45.22-.58v-15.62c0-.13.14-.33.41-.61.27-.27.49-.44.65-.51.03,0,.14,0,.31-.02.18-.02.32-.02.41-.02.13,0,.3,0,.51.02.21.02.33.02.36.02s.11.07.24.22c.13.14.23.27.29.36.06.06.15.23.27.48.11.26.2.45.27.58.1.19.22.49.36.9.15.4.22.64.22.7v7.57c-.03.61-.06,1.55-.07,2.81-.02,1.26-.04,2.69-.07,4.29-.03,1.6-.07,3.27-.12,5.02s-.09,3.42-.12,5.02c-.03,1.6-.06,3.03-.1,4.29-.03,1.26-.06,2.2-.1,2.81,0,.1-.02.28-.07.53-.05.26-.1.53-.15.82s-.11.56-.17.8c-.06.24-.11.41-.15.51-.03.06-.09.19-.17.39-.08.19-.18.4-.29.63-.11.23-.23.45-.34.68-.11.23-.2.39-.27.48-.03.06-.11.16-.24.29-.13.13-.23.21-.29.24-.16.07-.4.15-.73.27-.32.11-.65.23-.99.34s-.65.22-.95.31-.48.15-.58.15c-.32,0-.59,0-.8.02-.21.02-.43.02-.65.02h-1.14c-.24,0-.48,0-.73-.02-.24-.02-.46-.02-.65-.02h-.34c-.06,0-.21-.02-.44-.07-.23-.05-.48-.1-.75-.15-.28-.05-.56-.1-.85-.17-.29-.07-.5-.11-.63-.15-.19-.06-.49-.16-.9-.29-.4-.13-.64-.21-.7-.24-.16-.06-.4-.2-.7-.41-.31-.21-.63-.43-.97-.65-.34-.23-.66-.44-.97-.65-.31-.21-.51-.36-.61-.46s-.26-.25-.48-.46c-.23-.21-.45-.43-.68-.65-.23-.23-.44-.44-.63-.63-.19-.19-.32-.32-.39-.39-.1-.13-.23-.36-.41-.68-.18-.32-.35-.66-.51-1.02-.16-.36-.31-.68-.46-.97s-.22-.48-.22-.58c0-.42,0-.78-.02-1.07-.02-.29-.02-.58-.02-.87v-.73Zm4.85-.29c0,.19,0,.46.02.8.02.34.02.53.02.56s.05.12.15.27c.1.14.2.31.32.48.11.18.23.35.34.51.11.16.2.27.27.34.06.1.18.23.34.39.16.16.33.32.51.48.18.16.34.32.48.48s.25.26.32.29c.1.06.26.15.48.27.23.11.45.23.68.34.23.11.43.22.61.31.18.1.3.15.36.15s.24,0,.53.02c.29.02.62.03.99.05.37.02.73.03,1.09.05.36.02.63.02.82.02.13,0,.32,0,.58-.02.26-.02.52-.03.78-.05.26-.02.49-.03.7-.05.21-.02.35-.02.41-.02l.53-.53v-10.81c0-.06-.14-.16-.41-.29-.28-.13-.49-.21-.65-.24-.36,0-.65,0-.87-.02-.23-.02-.45-.02-.68-.02h-1.12c-.23,0-.46,0-.7.02-.24.02-.45.02-.63.02h-.32c-.06,0-.19.02-.36.07-.18.05-.38.1-.61.15-.23.05-.45.1-.68.17-.23.07-.39.11-.48.15-.13.06-.32.16-.58.29-.26.13-.42.23-.48.29-.1.06-.23.17-.39.31-.16.15-.32.31-.48.48-.16.18-.32.34-.48.48-.16.15-.26.25-.29.32-.06.1-.15.25-.27.46-.11.21-.23.43-.34.65-.11.23-.22.44-.32.63s-.15.32-.15.39c0,.03,0,.23-.02.58-.02.36-.02.61-.02.78Z"/>
    <path class="cls-1" d="m331.99,410.76c.1-1.39.18-2.5.24-3.35.06-.84.23-1.58.51-2.23.27-.65.71-1.28,1.31-1.92.6-.63,1.48-1.43,2.64-2.4.1-.06.27-.17.51-.31.24-.14.51-.29.8-.44.29-.15.56-.27.8-.39s.41-.19.51-.22c.03,0,.14,0,.31-.02.18-.02.38-.02.61-.02s.44,0,.65-.02c.21-.02.38-.02.51-.02.23,0,.57.02,1.04.05.47.03.73.05.8.05,2.42.58,4.25,1.67,5.48,3.27,1.23,1.6,2.02,3.58,2.38,5.94.03.16.1.56.22,1.19.11.63.24,1.32.39,2.06.15.74.28,1.44.41,2.09.13.65.23,1.05.29,1.21.06.16.3.5.7,1.02.4.52.83,1.07,1.28,1.65.45.58.88,1.12,1.29,1.62.4.5.64.82.7.95.03.1.08.27.15.53.06.26.13.54.19.85.06.31.13.59.19.85.06.26.1.44.1.53-.06,0-.19,0-.39-.02s-.4-.03-.63-.05c-.23-.02-.44-.03-.63-.05s-.31-.02-.34-.02c-.1-.03-.34-.11-.73-.24-.39-.13-.8-.27-1.24-.41-.44-.14-.85-.28-1.24-.41s-.63-.21-.73-.24h-1.31c-.1.03-.34.12-.73.27-.39.15-.8.29-1.24.44-.44.14-.85.28-1.24.41-.39.13-.63.19-.73.19-.03,0-.16,0-.39.02-.23.02-.48.03-.78.05-.29.02-.58.03-.87.05-.29.02-.52.02-.68.02s-.38,0-.65-.02c-.27-.02-.54-.03-.8-.05-.26-.02-.49-.03-.7-.05-.21-.02-.33-.02-.36-.02-.23-.06-.6-.21-1.12-.44-.52-.22-1.05-.48-1.6-.75-.55-.27-1.07-.55-1.55-.82-.48-.27-.81-.48-.97-.61-.78-.71-1.39-1.42-1.84-2.13-.45-.71-.79-1.46-1.02-2.23-.23-.78-.37-1.6-.44-2.47-.06-.87-.1-1.84-.1-2.91Zm5.19.97c0,.19.02.49.05.9.03.4.05.64.05.7,0,.03.04.14.12.31.08.18.18.38.29.61.11.23.23.44.34.65.11.21.22.36.31.46.06.13.23.32.49.58.26.26.44.42.53.48.1.07.26.15.48.27.23.11.44.23.65.34.21.11.4.21.58.29.18.08.3.12.36.12.03,0,.14,0,.32.02.18.02.38.02.61.02s.44,0,.65.02c.21.02.38.02.51.02.97.03,1.74-.23,2.3-.8.57-.57.95-1.29,1.16-2.16.21-.87.25-1.81.12-2.81-.13-1-.41-1.94-.85-2.81-.44-.87-1.02-1.6-1.75-2.18s-1.58-.87-2.55-.87c-.1,0-.23,0-.39.02-.16.02-.32.03-.48.05-.16.02-.31.03-.44.05-.13.02-.21.02-.24.02-.07,0-.19.09-.39.27-.19.18-.4.37-.61.58-.21.21-.42.43-.63.65-.21.23-.36.4-.46.53-.06.06-.15.19-.24.39l-.31.63c-.11.23-.22.44-.32.65-.1.21-.16.36-.19.46-.03.19-.05.39-.05.58-.03.16-.05.33-.05.51v.41Z"/>
    <path class="cls-1" d="m389.84,422.5c-.58-.35-1.22-.74-1.92-1.16-.7-.42-1.35-.89-1.96-1.41-.61-.52-1.16-1.09-1.65-1.72-.48-.63-.79-1.35-.92-2.16-.03-.16-.06-.53-.07-1.11-.02-.58-.02-1.21-.02-1.89s0-1.34.02-1.99c.02-.65.04-1.13.07-1.45,0-1.26.29-2.46.87-3.61s1.37-2.11,2.38-2.89c.03-.03.15-.12.36-.27.21-.15.44-.31.7-.48.26-.18.52-.35.78-.51.26-.16.45-.27.58-.34.06-.03.18-.09.34-.17.16-.08.33-.17.51-.27.18-.1.34-.18.48-.24s.23-.11.27-.15c1.13-.42,2.3-.69,3.52-.8,1.21-.11,2.45-.1,3.71.02,1.13.16,2.07.39,2.81.68.74.29,1.35.69,1.82,1.19.47.5.84,1.12,1.12,1.87.27.74.51,1.65.7,2.72.16.61.15,1.16-.05,1.65s-.44,1.02-.73,1.6c-.16.23-.44.49-.82.8s-1.09.61-2.11.9-2.44.54-4.27.75c-1.83.21-4.26.31-7.3.31-.06.16-.12.41-.17.75-.05.34-.07.7-.07,1.09s.02.76.07,1.12.1.6.17.73c.13.26.41.53.85.82s.94.56,1.5.8c.57.24,1.15.44,1.75.61.6.16,1.09.23,1.48.19.1-.03.35-.09.75-.17.4-.08.83-.17,1.29-.27.45-.1.87-.19,1.26-.27.39-.08.63-.12.73-.12.52,0,1.08-.03,1.7-.1.61-.06,1.16-.05,1.65.05s.82.32.99.68c.18.36.09.95-.27,1.79,0,.06-.07.17-.22.31-.15.15-.3.31-.46.49-.16.18-.33.34-.51.48-.18.14-.31.25-.41.31-.16.1-.41.23-.75.41-.34.18-.68.35-1.02.51-.34.16-.65.31-.92.44-.28.13-.46.21-.56.24-1.36.19-2.72.24-4.07.14s-2.68-.4-3.98-.92Zm.92-16.15c-.16.36-.14.65.07.9.21.24.48.44.82.58.34.14.7.26,1.09.34.39.08.71.12.97.12.39-.1.88-.18,1.48-.24.6-.06,1.15-.19,1.65-.36.5-.18.86-.44,1.09-.78.23-.34.15-.85-.24-1.53-.03-.06-.13-.14-.29-.24-.16-.1-.35-.2-.56-.31-.21-.11-.42-.22-.63-.32-.21-.1-.36-.16-.46-.19-.97-.16-1.88-.04-2.74.36-.86.4-1.61.96-2.25,1.67Z"/>
    <path class="cls-1" d="m406.96,403.73c0-.1.02-.24.07-.44s.1-.41.17-.65c.06-.24.12-.46.17-.65s.09-.34.12-.44c.03-.06.11-.24.24-.53.13-.29.23-.47.29-.53.03-.06.11-.16.24-.29.13-.13.23-.21.29-.24.16-.06.37-.17.63-.31.26-.15.42-.22.48-.22.03,0,.18.07.44.22.26.14.47.25.63.31.06.03.18.1.34.19.16.1.32.21.48.34.16.13.32.24.46.34s.25.16.31.19c.13-.1.35-.24.65-.44.31-.19.63-.4.97-.63s.66-.44.97-.65c.31-.21.53-.35.65-.41.06-.06.24-.16.53-.29s.47-.21.53-.24c.19-.1.49-.22.9-.36.4-.14.64-.22.7-.22h.29c.16,0,.35,0,.56-.02.21-.02.42-.02.63-.02h.51c.26,0,.61,0,1.07.02.45.02.69.02.73.02.06.03.19.09.39.17.19.08.4.19.63.31.23.13.45.25.68.36.23.11.39.2.48.27s.28.24.56.53c.27.29.44.47.51.53.03.1.12.28.27.56s.3.58.46.92c.16.34.32.68.48,1.02.16.34.29.59.39.75.06.13.16.39.29.78.13.39.21.66.24.82.03.13.07.35.12.65.05.31.1.63.17.97.06.34.12.66.17.97.05.31.07.53.07.65.03.26.08.72.15,1.38.06.66.12,1.37.17,2.11.05.74.1,1.45.15,2.11.05.66.07,1.12.07,1.38,0,.03,0,.14.02.34.02.19.02.41.02.65s0,.48.02.73c.02.24.02.43.02.56s0,.31-.02.53c-.02.23-.02.45-.02.68s-.02.5-.05.82c0,.13-.02.33-.07.61-.05.27-.1.56-.15.85s-.11.55-.17.78c-.06.23-.11.37-.15.44-.06.16-.23.38-.48.65-.26.27-.45.43-.58.46-.03,0-.17,0-.41.02s-.44.02-.61.02-.38,0-.65-.02c-.27-.02-.43-.02-.46-.02s-.11-.07-.24-.22c-.13-.15-.23-.25-.29-.32-.06-.1-.16-.28-.29-.56-.13-.27-.23-.46-.29-.56-.03-.13-.08-.32-.15-.58-.06-.26-.12-.53-.17-.82s-.1-.56-.15-.8c-.05-.24-.07-.4-.07-.46v-.36c0-.21,0-.46-.02-.75-.02-.29-.02-.58-.02-.87v-1.41c0-.29,0-.58.02-.87.02-.29.02-.54.02-.75v-.36c0-.1.02-.3.07-.61s.1-.65.17-1.02c.06-.37.13-.71.19-1.02.06-.31.1-.51.1-.61,0-.03.02-.23.05-.61.03-.37.05-.64.05-.8s-.02-.4-.05-.73c-.03-.32-.05-.52-.05-.58s-.06-.3-.19-.7c-.13-.4-.24-.7-.34-.9-.06-.13-.16-.33-.29-.61-.13-.27-.21-.43-.24-.46-.06-.06-.18-.15-.34-.27-.16-.11-.32-.22-.48-.34-.16-.11-.32-.22-.48-.31-.16-.1-.26-.15-.29-.15s-.21,0-.53-.02c-.32-.02-.57-.02-.73-.02s-.44,0-.82.02c-.39.02-.6.02-.63.02-.06,0-.23.06-.48.19-.26.13-.45.24-.58.34-.06.06-.16.15-.29.27-.13.11-.21.2-.24.27s-.11.3-.24.7c-.13.4-.23.7-.29.9-.03.13-.08.31-.15.53-.06.23-.12.46-.17.7-.05.24-.1.45-.15.63-.05.18-.07.28-.07.32-.03.32-.08.82-.15,1.5-.07.68-.14,1.44-.22,2.28-.08.84-.15,1.73-.22,2.67-.07.94-.14,1.83-.22,2.67-.08.84-.15,1.6-.19,2.28s-.07,1.18-.07,1.5c0,.16-.07.44-.22.85s-.27.67-.36.8c-.07.06-.17.18-.32.34-.15.16-.3.33-.46.51-.16.18-.32.34-.48.48-.16.14-.27.23-.34.27-.06.03-.13.05-.19.05h-.29c-.06,0-.17,0-.31-.02-.15-.02-.23-.02-.27-.02-.13-.03-.32-.11-.58-.24-.26-.13-.42-.23-.48-.29-.13-.13-.33-.4-.61-.8-.27-.4-.44-.67-.51-.8-.03-.06-.07-.2-.12-.41-.05-.21-.11-.43-.17-.65-.07-.23-.12-.44-.17-.65s-.07-.36-.07-.46c-.03-.19-.07-.65-.12-1.38-.05-.73-.11-1.52-.17-2.38-.06-.86-.12-1.65-.17-2.38-.05-.73-.07-1.19-.07-1.38,0-.1-.03-.33-.1-.7-.06-.37-.12-.77-.17-1.19s-.11-.82-.17-1.19c-.06-.37-.1-.61-.1-.7-.03-.23-.07-.56-.12-1.02s-.11-.91-.17-1.38c-.06-.47-.12-.88-.17-1.24-.05-.35-.07-.58-.07-.68v-1.07Z"/>
    <path class="cls-1" d="m455.79,403.1c0-.45,0-1.06.02-1.82.02-.76.03-1.51.05-2.26.02-.74.03-1.41.05-1.99.02-.58.02-.92.02-1.02.03-.71.1-1.69.22-2.93.11-1.24.23-2.49.36-3.73.13-1.24.25-2.34.36-3.27.11-.94.2-1.44.27-1.5.71-.71,1.32-1.17,1.82-1.38.5-.21.94-.27,1.31-.17.37.1.69.31.97.65.27.34.54.7.8,1.09l.29,30.5c0,.06.05.21.15.44s.22.48.36.75.29.54.44.8c.15.26.27.45.36.58.06.06.22.23.46.48.24.26.51.53.8.82s.56.56.8.8c.24.24.4.4.46.46,0,.1.02.19.05.29.06.19.1.31.1.34,0,.06-.03.19-.1.39-.03.1-.05.19-.05.29s-.06.21-.17.34c-.11.13-.23.27-.36.41-.13.15-.27.27-.41.36s-.25.14-.32.14c-.03,0-.15,0-.36.02-.21.02-.45.03-.73.05-.27.02-.55.03-.82.05-.27.02-.49.02-.65.02s-.38,0-.65-.02c-.27-.02-.55-.03-.82-.05-.27-.02-.52-.03-.73-.05-.21-.02-.33-.02-.36-.02s-.11-.05-.22-.14c-.11-.1-.23-.22-.36-.36-.13-.14-.26-.28-.39-.41-.13-.13-.23-.24-.29-.34-.07-.13-.17-.32-.32-.58-.15-.26-.29-.52-.44-.8-.15-.27-.27-.52-.39-.75-.11-.23-.17-.37-.17-.44-.07-.36-.16-.97-.29-1.84-.13-.87-.26-1.78-.39-2.72-.13-.94-.25-1.83-.36-2.67-.11-.84-.19-1.42-.22-1.75,0-.06,0-.39-.02-.97-.02-.58-.03-1.25-.05-2.01-.02-.76-.03-1.52-.05-2.28-.02-.76-.02-1.37-.02-1.82Z"/>
    <path class="cls-1" d="m468.3,410.76c.1-1.39.18-2.5.24-3.35.06-.84.23-1.58.51-2.23.27-.65.71-1.28,1.31-1.92.6-.63,1.48-1.43,2.64-2.4.1-.06.27-.17.51-.31.24-.14.51-.29.8-.44.29-.15.56-.27.8-.39s.41-.19.51-.22c.03,0,.14,0,.31-.02.18-.02.38-.02.61-.02s.44,0,.65-.02c.21-.02.38-.02.51-.02.23,0,.57.02,1.04.05.47.03.73.05.8.05,2.42.58,4.25,1.67,5.48,3.27,1.23,1.6,2.02,3.58,2.38,5.94.03.16.1.56.22,1.19.11.63.24,1.32.39,2.06.15.74.28,1.44.41,2.09.13.65.23,1.05.29,1.21.06.16.3.5.7,1.02.4.52.83,1.07,1.28,1.65.45.58.88,1.12,1.29,1.62.4.5.64.82.7.95.03.1.08.27.15.53.06.26.13.54.19.85.06.31.13.59.19.85.06.26.1.44.1.53-.06,0-.19,0-.39-.02s-.4-.03-.63-.05c-.23-.02-.44-.03-.63-.05s-.31-.02-.34-.02c-.1-.03-.34-.11-.73-.24-.39-.13-.8-.27-1.24-.41-.44-.14-.85-.28-1.24-.41s-.63-.21-.73-.24h-1.31c-.1.03-.34.12-.73.27-.39.15-.8.29-1.24.44-.44.14-.85.28-1.24.41-.39.13-.63.19-.73.19-.03,0-.16,0-.39.02-.23.02-.48.03-.78.05-.29.02-.58.03-.87.05-.29.02-.52.02-.68.02s-.38,0-.65-.02c-.27-.02-.54-.03-.8-.05-.26-.02-.49-.03-.7-.05-.21-.02-.33-.02-.36-.02-.23-.06-.6-.21-1.12-.44-.52-.22-1.05-.48-1.6-.75-.55-.27-1.07-.55-1.55-.82-.48-.27-.81-.48-.97-.61-.78-.71-1.39-1.42-1.84-2.13-.45-.71-.79-1.46-1.02-2.23-.23-.78-.37-1.6-.44-2.47-.06-.87-.1-1.84-.1-2.91Zm5.19.97c0,.19.02.49.05.9.03.4.05.64.05.7,0,.03.04.14.12.31.08.18.18.38.29.61.11.23.23.44.34.65.11.21.22.36.31.46.06.13.23.32.49.58.26.26.44.42.53.48.1.07.26.15.48.27.23.11.44.23.65.34.21.11.4.21.58.29.18.08.3.12.36.12.03,0,.14,0,.32.02.18.02.38.02.61.02s.44,0,.65.02c.21.02.38.02.51.02.97.03,1.74-.23,2.3-.8.57-.57.95-1.29,1.16-2.16.21-.87.25-1.81.12-2.81-.13-1-.41-1.94-.85-2.81-.44-.87-1.02-1.6-1.75-2.18s-1.58-.87-2.55-.87c-.1,0-.23,0-.39.02-.16.02-.32.03-.48.05-.16.02-.31.03-.44.05-.13.02-.21.02-.24.02-.07,0-.19.09-.39.27-.19.18-.4.37-.61.58-.21.21-.42.43-.63.65-.21.23-.36.4-.46.53-.06.06-.15.19-.24.39l-.31.63c-.11.23-.22.44-.32.65-.1.21-.16.36-.19.46-.03.19-.05.39-.05.58-.03.16-.05.33-.05.51v.41Z"/>
    <path class="cls-1" d="m519.9,411.25c0-.19,0-.48.02-.87.02-.39.02-.6.02-.63.03-.1.1-.33.22-.7.11-.37.24-.78.39-1.21.15-.44.29-.86.44-1.29.15-.42.27-.74.36-.97.03-.13.11-.34.24-.63.13-.29.27-.58.41-.87s.28-.56.41-.8c.13-.24.23-.39.29-.46.03-.06.15-.2.36-.41.21-.21.44-.44.68-.68.24-.24.49-.48.73-.7.24-.23.43-.4.56-.53.13-.1.37-.27.73-.51.36-.24.57-.38.63-.41.16-.03.46-.1.9-.19s.9-.19,1.38-.29.95-.19,1.41-.27c.45-.08.78-.14.97-.17.32,0,.6,0,.82-.02.23-.02.44-.02.65-.02h1.07c.24,0,.48,0,.7.02.23.02.42.02.58.02h.29c.13,0,.37.06.73.19.36.13.58.23.68.29.1.06.22.16.36.29.15.13.29.27.44.41.15.14.27.28.39.41.11.13.17.21.17.24.03.03.06.18.07.44.02.26.02.44.02.53,0,.13,0,.3-.02.51-.02.21-.04.33-.07.36-.07.1-.33.27-.8.51-.47.24-.82.38-1.04.41-.1.03-.37.07-.82.12-.45.05-.94.1-1.45.15-.52.05-1,.1-1.45.14-.45.05-.74.07-.87.07s-.31.02-.56.07c-.24.05-.48.1-.73.14-.24.05-.47.1-.68.15-.21.05-.33.09-.36.12-.06,0-.27.12-.61.36s-.59.43-.75.56c-.07.03-.22.17-.46.41-.24.24-.4.41-.46.51-.13.13-.3.32-.51.56-.21.24-.41.48-.61.73-.19.24-.36.46-.51.65s-.22.31-.22.34c-.03.06-.1.23-.19.48-.1.26-.19.53-.29.82s-.19.57-.27.85c-.08.27-.14.48-.17.61,0,.03,0,.14-.02.31-.02.18-.02.3-.02.36,0,.1,0,.23.02.41.02.18.02.28.02.31.03.16.1.47.19.92.1.45.18.76.24.92.03.06.09.18.17.34.08.16.17.34.27.53s.19.38.27.56c.08.18.15.31.22.41l.48.48c.1.06.32.22.68.46.35.24.58.4.68.46.13.07.31.15.53.27.23.11.36.17.39.17s.25,0,.65.02c.4.02.74.02.99.02.19,0,.49,0,.9-.02.4-.02.64-.02.7-.02s.27-.06.63-.17c.35-.11.61-.2.78-.27.19-.1.56-.28,1.09-.56.53-.27,1.09-.56,1.67-.85s1.14-.57,1.67-.82c.53-.26.9-.44,1.09-.53.06,0,.22,0,.46-.02.24-.01.4-.02.46-.02.13,0,.31,0,.53.02.23.02.36.02.39.02.06,0,.21.06.44.17.23.11.39.2.48.27.06.06.16.15.29.27.13.11.19.19.19.22v.15c0,.06,0,.12.02.17.02.05.02.09.02.12,0,.06,0,.15-.02.27-.02.11-.02.19-.02.22-.03.06-.09.19-.17.36-.08.18-.17.36-.27.56s-.19.38-.29.56c-.1.18-.16.3-.19.36s-.13.18-.29.34c-.16.16-.34.34-.53.53s-.4.38-.61.56c-.21.18-.36.31-.46.41-.07.06-.18.16-.34.29-.16.13-.34.27-.53.41-.19.14-.38.28-.56.41-.18.13-.31.21-.41.24-.06.07-.21.15-.44.24-.23.1-.39.18-.48.24-.06.03-.27.11-.63.24-.36.13-.6.19-.73.19-.26.06-.61.16-1.07.29-.45.13-.71.19-.78.19-.03,0-.2,0-.51.02-.31.02-.54.02-.7.02s-.38,0-.65-.02c-.27-.02-.43-.02-.46-.02-.26-.03-.61-.09-1.04-.17-.44-.08-.88-.17-1.33-.27-.45-.1-.85-.19-1.19-.29s-.54-.16-.61-.19c-.06-.03-.25-.2-.56-.51-.31-.31-.65-.65-1.04-1.04l-1.16-1.16c-.39-.39-.7-.71-.92-.97-.03-.06-.11-.22-.22-.46-.11-.24-.19-.39-.22-.46-.07-.06-.23-.22-.48-.46-.26-.24-.4-.4-.44-.46-.07-.06-.15-.3-.27-.7-.11-.4-.19-.64-.22-.7-.03-.06-.11-.22-.24-.46-.13-.24-.19-.39-.19-.46-.06-.16-.16-.42-.29-.78-.13-.36-.19-.57-.19-.63,0-.03,0-.27-.02-.7-.02-.44-.02-.77-.02-.99Z"/>
    <path class="cls-1" d="m544.53,411.59v-.56c0-.24,0-.48.02-.7.02-.23.02-.52.02-.87,0-.06.02-.22.07-.46.05-.24.11-.5.19-.78.08-.27.15-.54.22-.8.06-.26.13-.47.19-.63.19-.65.45-1.31.78-1.99.32-.68.71-1.31,1.16-1.89.36-.55.81-1.03,1.36-1.43.55-.4,1.08-.8,1.6-1.19,1.42-.45,2.79-.78,4.1-.97,1.31-.19,2.5-.24,3.59-.14s2.02.34,2.81.73c.79.39,1.41.94,1.87,1.65.03.07.13.22.29.46.16.24.29.43.39.56.13.23.31.54.56.95.24.4.38.62.41.65,0,.06.05.22.15.46.1.24.19.52.29.85.1.32.19.64.29.95.1.31.18.56.24.75.13.39.22.77.27,1.14.05.37.09.82.12,1.33,0,.74-.07,1.47-.22,2.18-.14.71-.31,1.44-.51,2.18-.03.1-.09.28-.17.56-.08.27-.17.57-.27.87-.1.31-.19.61-.29.9s-.16.5-.19.63c-.45,1.1-1.1,2.1-1.94,3.01-.84.91-1.83,1.63-2.96,2.18-.1,0-.27.03-.53.1-.26.06-.53.14-.82.22-.29.08-.56.15-.8.22-.24.07-.4.11-.46.15-.06.03-.15.08-.27.14-.11.07-.24.14-.39.22-.15.08-.28.14-.41.19-.13.05-.21.07-.24.07-.06,0-.23,0-.48.02-.26.02-.47.02-.63.02s-.39,0-.68-.02c-.29-.02-.47-.02-.53-.02-.03,0-.18-.03-.44-.1-.26-.07-.44-.13-.53-.19-.07-.03-.28-.15-.65-.34-.37-.19-.59-.32-.65-.39-.55,0-1.06-.18-1.53-.53-.47-.35-.95-.81-1.43-1.36-.03-.03-.17-.22-.41-.56-.24-.34-.43-.59-.56-.75-.26-.39-.49-.77-.68-1.14s-.39-.75-.58-1.14c-.03-.03-.1-.22-.19-.56-.1-.34-.16-.59-.19-.75-.06-.23-.13-.55-.19-.97-.06-.42-.1-.65-.1-.68v-.34c0-.19,0-.42-.02-.68-.02-.26-.02-.52-.02-.78v-.63Zm5.14-.58v.48c0,.19,0,.39.02.58.02.19.02.36.02.51v.27c0,.06.02.19.05.39.03.19.07.4.12.63s.1.44.17.63c.06.19.11.34.15.44.06.16.19.44.39.85s.32.65.39.75c.1.1.31.32.63.65.32.34.55.54.68.61.65.36,1.38.49,2.21.39.82-.1,1.56-.31,2.21-.63.1-.19.25-.35.46-.46.21-.11.38-.23.51-.36.1-.03.31-.19.65-.48.34-.29.57-.47.7-.53.03-.03.07-.06.12-.1.05-.03.09-.06.12-.1.06-.03.11-.12.15-.27.03-.15.06-.25.1-.31.03,0,.07-.04.12-.12.05-.08.09-.14.12-.17.06-.06.15-.27.27-.61.11-.34.19-.56.22-.65.06-.1.14-.27.22-.53.08-.26.12-.42.12-.48v-.27c0-.14,0-.31.02-.51.02-.19.02-.39.02-.58v-.95c0-.21,0-.41-.02-.61-.02-.19-.02-.36-.02-.51v-.27c0-.06-.04-.22-.12-.46-.08-.24-.15-.43-.22-.56-.29-.84-.65-1.43-1.09-1.77-.44-.34-.99-.67-1.67-.99-.26-.13-.5-.21-.73-.24-.23-.03-.49-.06-.78-.1-.91,0-1.79.11-2.67.34-.19.03-.4.14-.61.32-.21.18-.44.3-.7.36-.07.07-.15.16-.27.29-.11.13-.24.27-.39.41-.15.14-.27.27-.39.39-.11.11-.19.19-.22.22-.06.03-.15.18-.27.44-.11.26-.2.47-.27.63-.06.16-.16.4-.29.73-.13.32-.19.5-.19.53,0,.06,0,.32-.02.78-.02.45-.02.79-.02,1.02Z"/>
    <path class="cls-1" d="m578.09,403.68c-.06,0-.15,0-.24.02-.1.02-.19.02-.29.02h-.34c-.06,0-.21.06-.44.17-.23.11-.37.2-.44.27-.06.06-.2.21-.41.44-.21.23-.35.37-.41.44s-.15.2-.27.41c-.11.21-.17.35-.17.41s0,.36-.02.9c-.02.53-.02.96-.02,1.28,0,.26,0,.65.02,1.16.02.52.02.81.02.87,0,.13.04.42.12.87.08.45.18.94.29,1.45.11.52.21,1,.29,1.46.08.45.12.74.12.87,0,.06,0,.31.02.73.02.42.02.73.02.92,0,.26,0,.6-.02,1.02-.02.42-.02.66-.02.73s-.05.31-.14.75c-.1.44-.18.75-.24.95-.06.16-.15.41-.27.75-.11.34-.17.52-.17.56-.1.13-.31.35-.63.65-.32.31-.53.49-.63.56-.03,0-.14,0-.34.02-.19.02-.34.02-.44.02s-.27,0-.51-.02c-.24-.02-.38-.02-.41-.02-.1-.03-.25-.09-.46-.17-.21-.08-.33-.15-.36-.22-.03-.03-.09-.12-.17-.27-.08-.14-.17-.31-.27-.48-.1-.18-.19-.35-.27-.53-.08-.18-.14-.32-.17-.41-.06-.1-.14-.31-.24-.65-.1-.34-.16-.54-.19-.61-.03-.13-.09-.44-.17-.95-.08-.5-.17-1.04-.27-1.62s-.19-1.11-.27-1.6-.12-.79-.12-.92c-.03-.1-.06-.25-.1-.46-.03-.21-.07-.43-.12-.65-.05-.23-.1-.44-.15-.63-.05-.19-.07-.32-.07-.39s-.05-.26-.15-.58-.19-.68-.29-1.07-.19-.75-.27-1.09c-.08-.34-.12-.56-.12-.65v-.36c0-.21,0-.44-.02-.7-.02-.26-.02-.53-.02-.8v-1.16c0-.24,0-.5.02-.78.02-.27.02-.52.02-.75v-.48c0-.06.05-.21.14-.44s.18-.37.24-.44c.16-.16.4-.4.73-.7.32-.31.52-.49.58-.56h.19c.06,0,.13,0,.19-.02.06-.02.13-.02.19-.02.03,0,.09,0,.17.02s.15.02.22.02h.24s.1.06.22.17.2.2.27.27c0,.03.04.11.12.24.08.13.17.26.27.39.1.13.19.26.27.39.08.13.14.21.17.24.03.03.06.05.1.05h.19s.05,0,.05-.02c0-.02.02-.02.05-.02.06-.1.19-.25.39-.46s.4-.43.63-.65c.23-.23.44-.43.65-.61s.36-.3.46-.36c.1-.1.27-.21.53-.34.26-.13.52-.27.78-.41.26-.14.51-.27.75-.36.24-.1.41-.16.51-.19h.68c.19,0,.38,0,.56-.02.18-.02.33-.02.46-.02h.53c.23,0,.45,0,.68.02.23.02.42.02.58.02h.29c.1,0,.31.06.63.17.32.11.53.2.63.27s.31.2.63.41c.32.21.55.36.68.46.06.06.2.2.41.41.21.21.35.35.41.41.1.13.23.34.39.63.16.29.33.59.51.9.18.31.34.6.48.87.14.28.25.46.31.56.03.03.06.13.1.29.03.16.07.34.12.53.05.19.09.37.12.53.03.16.06.26.1.29.03.07.09.15.17.27.08.11.15.19.22.22.03-.1.08-.25.14-.46s.15-.43.24-.65.18-.44.27-.63c.08-.19.15-.32.22-.39.03-.03.12-.16.27-.39.14-.23.31-.48.48-.75.18-.27.35-.54.53-.8.18-.26.31-.47.41-.63,0-.06.06-.14.17-.22.11-.08.2-.14.27-.17.03-.03.1-.09.22-.17s.24-.17.39-.27c.15-.1.27-.18.39-.24.11-.06.19-.11.22-.14.06-.03.21-.11.44-.24.23-.13.37-.21.44-.24.06,0,.14-.05.24-.15s.16-.18.19-.24c.19-.03.55-.06,1.07-.1s1.07-.07,1.65-.12c.58-.05,1.14-.1,1.67-.15.53-.05.91-.07,1.14-.07h.39c.1.03.24.1.44.19s.32.18.39.24c.1.1.27.26.53.48.26.23.52.48.78.75.26.27.51.53.75.78l.51.51c.03.06.16.27.39.61.23.34.37.56.44.65.03.1.1.23.19.39.1.16.19.34.29.53s.18.36.24.51c.06.15.11.23.15.27.03.1.1.36.22.8.11.44.19.75.22.95,0,.06.02.24.05.53.03.29.07.6.12.92.05.32.1.63.15.92.05.29.09.47.12.53,0,.06.06.21.17.44.11.23.18.37.22.44.06.23.15.61.27,1.14.11.53.17.87.17.99v.44c0,.26,0,.57.02.95.02.37.02.74.02,1.09v1.77c0,.37,0,.74-.02,1.09-.02.36-.02.67-.02.95v.46c0,.06-.02.17-.05.31-.03.14-.07.31-.12.48-.05.18-.1.35-.15.51-.05.16-.09.29-.12.39-.03.07-.1.2-.19.41s-.16.35-.19.41c-.1.13-.26.3-.48.51-.23.21-.36.33-.39.36-.03.03-.08.05-.15.05h-.24c-.06,0-.15,0-.27-.02-.11-.02-.19-.02-.22-.02-.03-.03-.16-.1-.39-.19-.23-.1-.37-.18-.44-.24-.03-.03-.1-.1-.22-.19-.11-.1-.19-.18-.22-.24-.03-.06-.09-.18-.17-.34-.08-.16-.17-.33-.27-.51-.1-.18-.18-.35-.24-.51-.07-.16-.11-.27-.15-.34-.06-.1-.15-.36-.24-.8-.1-.44-.16-.72-.19-.85,0-.06-.02-.27-.07-.63-.05-.36-.1-.76-.15-1.21-.05-.45-.09-.9-.12-1.36-.03-.45-.06-.81-.1-1.07v-.44s.02-.17.07-.41c.05-.24.1-.51.14-.8.05-.29.1-.57.15-.82.05-.26.07-.42.07-.48s0-.3.02-.7c.02-.4.02-.7.02-.9,0-.06,0-.17-.02-.31-.02-.15-.02-.3-.02-.46v-.53s-.03-.14-.1-.32c-.06-.18-.14-.38-.24-.61-.1-.23-.19-.45-.29-.68-.1-.23-.18-.4-.24-.53-.03-.1-.08-.23-.14-.41-.06-.18-.15-.35-.24-.53s-.19-.34-.27-.48c-.08-.15-.14-.23-.17-.27-.06-.06-.14-.15-.22-.27-.08-.11-.14-.17-.17-.17s-.22,0-.56-.02c-.34-.02-.59-.02-.75-.02s-.4,0-.73.02c-.32.02-.5.02-.53.02-.06,0-.2.06-.41.17-.21.11-.35.2-.41.27-.1.1-.26.24-.48.44s-.44.4-.65.63c-.21.23-.41.44-.61.65s-.32.35-.39.41c-.06.03-.2.26-.41.68-.21.42-.35.76-.41,1.02-.03.03-.11.21-.22.53-.11.32-.2.55-.27.68-.07.29-.16.67-.29,1.14-.13.47-.26.93-.39,1.38-.13.45-.25.84-.36,1.16-.11.32-.17.5-.17.53-.03.16-.09.51-.17,1.04s-.17,1.12-.27,1.75c-.1.63-.19,1.21-.27,1.75-.08.53-.14.87-.17.99l-.44,1.31c-.03.06-.09.2-.17.41-.08.21-.15.35-.22.41-.1.13-.25.36-.46.68-.21.32-.35.52-.41.58-.06.1-.21.26-.44.48-.23.23-.36.34-.39.34s-.15,0-.36.02c-.21.02-.36.02-.46.02s-.27,0-.51-.02c-.24-.02-.38-.02-.41-.02l-.15-.15c-.06-.06-.11-.1-.15-.12-.03-.02-.06-.06-.1-.12-.06-.07-.14-.2-.22-.41s-.15-.36-.22-.46c-.03-.13-.1-.35-.19-.68-.1-.32-.16-.52-.19-.58,0-.03-.02-.16-.07-.39-.05-.23-.1-.48-.14-.75-.05-.27-.1-.54-.15-.8-.05-.26-.09-.45-.12-.58,0-.16-.04-.55-.12-1.16-.08-.61-.17-1.28-.27-2.01s-.19-1.41-.27-2.04c-.08-.63-.14-1.03-.17-1.19-.03-.1-.06-.27-.1-.51-.03-.24-.06-.5-.1-.78-.03-.27-.06-.52-.1-.75-.03-.23-.06-.39-.1-.48-.03-.13-.1-.4-.22-.82-.11-.42-.19-.71-.22-.87-.06-.13-.14-.33-.22-.61-.08-.27-.17-.54-.27-.8-.1-.26-.18-.49-.24-.7s-.11-.35-.14-.41c-.03-.06-.15-.26-.36-.58-.21-.32-.36-.55-.46-.68-.1-.1-.25-.26-.46-.48-.21-.23-.35-.35-.41-.39-.03,0-.15,0-.34-.02-.19-.02-.34-.02-.44-.02Z"/>
    <path class="cls-1" d="m607.96,411.59v-.56c0-.24,0-.48.02-.7.02-.23.02-.52.02-.87,0-.06.02-.22.07-.46.05-.24.11-.5.19-.78.08-.27.15-.54.22-.8s.13-.47.19-.63c.19-.65.45-1.31.78-1.99s.71-1.31,1.16-1.89c.35-.55.81-1.03,1.36-1.43.55-.4,1.08-.8,1.6-1.19,1.42-.45,2.79-.78,4.1-.97,1.31-.19,2.51-.24,3.59-.14s2.02.34,2.81.73c.79.39,1.41.94,1.87,1.65.03.07.13.22.29.46.16.24.29.43.39.56.13.23.32.54.56.95.24.4.38.62.41.65,0,.06.05.22.15.46.1.24.19.52.29.85.1.32.19.64.29.95.1.31.18.56.24.75.13.39.22.77.27,1.14.05.37.09.82.12,1.33,0,.74-.07,1.47-.22,2.18-.15.71-.32,1.44-.51,2.18-.03.1-.09.28-.17.56-.08.27-.17.57-.27.87-.1.31-.19.61-.29.9-.1.29-.16.5-.19.63-.45,1.1-1.1,2.1-1.94,3.01-.84.91-1.83,1.63-2.96,2.18-.1,0-.28.03-.53.1s-.53.14-.82.22c-.29.08-.56.15-.8.22-.24.07-.4.11-.46.15-.06.03-.15.08-.27.14-.11.07-.24.14-.39.22-.15.08-.28.14-.41.19-.13.05-.21.07-.24.07-.07,0-.23,0-.49.02-.26.02-.47.02-.63.02s-.39,0-.68-.02c-.29-.02-.47-.02-.53-.02-.03,0-.18-.03-.44-.1-.26-.07-.44-.13-.53-.19-.06-.03-.28-.15-.65-.34s-.59-.32-.65-.39c-.55,0-1.06-.18-1.53-.53-.47-.35-.95-.81-1.43-1.36-.03-.03-.17-.22-.41-.56-.24-.34-.43-.59-.56-.75-.26-.39-.49-.77-.68-1.14s-.39-.75-.58-1.14c-.03-.03-.1-.22-.19-.56-.1-.34-.16-.59-.19-.75-.06-.23-.13-.55-.19-.97-.06-.42-.1-.65-.1-.68v-.34c0-.19,0-.42-.02-.68-.02-.26-.02-.52-.02-.78v-.63Zm5.14-.58v.48c0,.19,0,.39.02.58.02.19.02.36.02.51v.27c0,.06.02.19.05.39s.07.4.12.63c.05.23.1.44.17.63.06.19.11.34.14.44.07.16.19.44.39.85s.32.65.39.75c.1.1.31.32.63.65.32.34.55.54.68.61.65.36,1.38.49,2.21.39.82-.1,1.56-.31,2.21-.63.1-.19.25-.35.46-.46.21-.11.38-.23.51-.36.1-.03.32-.19.66-.48.34-.29.57-.47.7-.53.03-.03.07-.06.12-.1s.09-.06.12-.1c.07-.03.11-.12.15-.27s.06-.25.1-.31c.03,0,.07-.04.12-.12.05-.08.09-.14.12-.17.06-.06.15-.27.27-.61.11-.34.19-.56.22-.65.06-.1.14-.27.22-.53.08-.26.12-.42.12-.48v-.27c0-.14,0-.31.02-.51s.03-.39.03-.58v-.95c0-.21,0-.41-.03-.61s-.02-.36-.02-.51v-.27c0-.06-.04-.22-.12-.46-.08-.24-.15-.43-.22-.56-.29-.84-.66-1.43-1.09-1.77-.44-.34-.99-.67-1.67-.99-.26-.13-.5-.21-.73-.24s-.48-.06-.78-.1c-.9,0-1.79.11-2.67.34-.19.03-.4.14-.61.32s-.44.3-.7.36c-.07.07-.15.16-.27.29-.11.13-.24.27-.39.41-.15.14-.27.27-.39.39s-.19.19-.22.22c-.06.03-.15.18-.27.44-.11.26-.2.47-.27.63-.06.16-.16.4-.29.73-.13.32-.19.5-.19.53,0,.06,0,.32-.02.78-.02.45-.02.79-.02,1.02Z"/>
    <path class="cls-1" d="m629.93,412.36v-.82c0-.35,0-.7.02-1.04.02-.34.02-.65.02-.92v-.46s.02-.11.07-.24c.05-.13.1-.28.15-.46.05-.18.1-.35.17-.51.06-.16.11-.29.14-.39s.11-.28.24-.56c.13-.27.22-.46.29-.56.06-.1.15-.23.27-.39s.23-.33.34-.51c.11-.18.22-.33.31-.46s.16-.21.19-.24c.1-.1.24-.26.44-.48.19-.23.4-.45.63-.68.23-.23.44-.43.65-.61.21-.18.35-.3.41-.36.03-.03.15-.1.34-.22s.41-.23.65-.34c.24-.11.47-.22.68-.31.21-.1.36-.18.46-.24.06-.03.2-.07.41-.12.21-.05.43-.1.65-.17.23-.06.44-.12.65-.17.21-.05.36-.07.46-.07.13-.03.39-.07.78-.12.39-.05.81-.1,1.26-.15.45-.05.9-.1,1.33-.14.44-.05.75-.09.95-.12h1.07c.16-.03.39-.07.68-.12.29-.05.58-.1.87-.17.29-.06.55-.12.78-.17.22-.05.35-.07.39-.07.06-.06.17-.23.31-.48.14-.26.22-.45.22-.58v-15.62c0-.13.14-.33.41-.61.27-.27.49-.44.65-.51.03,0,.14,0,.32-.02.18-.02.31-.02.41-.02.13,0,.3,0,.51.02.21.02.33.02.36.02s.11.07.24.22c.13.14.23.27.29.36.06.06.15.23.27.48s.2.45.27.58c.1.19.22.49.36.9.14.4.22.64.22.7v7.57c-.03.61-.06,1.55-.07,2.81-.02,1.26-.04,2.69-.07,4.29-.03,1.6-.07,3.27-.12,5.02-.05,1.75-.09,3.42-.12,5.02-.03,1.6-.06,3.03-.1,4.29-.03,1.26-.06,2.2-.1,2.81,0,.1-.02.28-.07.53-.05.26-.1.53-.14.82-.05.29-.11.56-.17.8-.06.24-.11.41-.15.51-.03.06-.09.19-.17.39-.08.19-.18.4-.29.63-.11.23-.23.45-.34.68-.11.23-.2.39-.27.48-.03.06-.11.16-.24.29s-.23.21-.29.24c-.16.07-.4.15-.73.27-.32.11-.65.23-.99.34-.34.11-.65.22-.95.31s-.48.15-.58.15c-.32,0-.59,0-.8.02-.21.02-.43.02-.65.02h-1.14c-.24,0-.48,0-.73-.02-.24-.02-.46-.02-.65-.02h-.34c-.06,0-.21-.02-.44-.07-.23-.05-.48-.1-.75-.15-.27-.05-.56-.1-.85-.17-.29-.07-.5-.11-.63-.15-.19-.06-.49-.16-.9-.29-.4-.13-.64-.21-.7-.24-.16-.06-.4-.2-.7-.41-.31-.21-.63-.43-.97-.65-.34-.23-.66-.44-.97-.65s-.51-.36-.61-.46-.26-.25-.48-.46c-.23-.21-.45-.43-.68-.65-.23-.23-.44-.44-.63-.63l-.39-.39c-.1-.13-.23-.36-.41-.68-.18-.32-.35-.66-.51-1.02-.16-.36-.32-.68-.46-.97-.15-.29-.22-.48-.22-.58,0-.42,0-.78-.02-1.07s-.02-.58-.02-.87v-.73Zm4.85-.29c0,.19,0,.46.02.8.02.34.02.53.02.56s.05.12.15.27c.1.14.2.31.31.48.11.18.23.35.34.51.11.16.2.27.27.34.06.1.18.23.34.39.16.16.33.32.51.48.18.16.34.32.48.48.14.16.25.26.31.29.1.06.26.15.48.27s.45.23.68.34c.23.11.43.22.61.31.18.1.3.15.36.15s.24,0,.53.02c.29.02.62.03.99.05s.74.03,1.09.05c.35.02.63.02.82.02.13,0,.32,0,.58-.02.26-.02.52-.03.78-.05s.49-.03.7-.05c.21-.02.35-.02.41-.02l.53-.53v-10.81c0-.06-.14-.16-.41-.29s-.49-.21-.65-.24c-.36,0-.65,0-.87-.02-.23-.02-.45-.02-.68-.02h-1.11c-.23,0-.46,0-.7.02-.24.02-.45.02-.63.02h-.31c-.07,0-.19.02-.36.07-.18.05-.38.1-.61.15-.23.05-.45.1-.68.17-.23.07-.39.11-.48.15-.13.06-.32.16-.58.29-.26.13-.42.23-.48.29-.1.06-.23.17-.39.31-.16.15-.32.31-.48.48-.16.18-.32.34-.48.48-.16.15-.26.25-.29.32-.06.1-.15.25-.27.46-.11.21-.23.43-.34.65-.11.23-.22.44-.31.63s-.15.32-.15.39c0,.03,0,.23-.02.58-.02.36-.02.61-.02.78Z"/>
    <path class="cls-1" d="m657.76,422.74c-.58-.19-1.06-.56-1.43-1.09-.37-.53-.65-1.13-.85-1.79-.19-.66-.33-1.33-.41-2.01s-.14-1.28-.17-1.79c0-.26.04-.82.12-1.67.08-.86.17-1.79.27-2.79.1-1,.19-1.97.29-2.91s.18-1.65.24-2.13c.26-1.03.59-1.91.99-2.64.4-.73,1.04-1.45,1.92-2.16.29-.1.61-.14.94-.12.34.02.69.07,1.04.17s.69.23,1.02.41c.32.18.58.36.78.56,0,3.2-.02,5.92-.05,8.15s-.08,4.08-.14,5.55c-.06,1.47-.13,2.63-.19,3.47-.06.84-.13,1.46-.19,1.87-.06.4-.13.66-.19.78-.06.11-.11.17-.15.17-.16,0-.44,0-.82.02-.39.02-.78.02-1.19.02s-.78,0-1.14-.02c-.36-.02-.58-.02-.68-.02Zm2.81-27.59c-.74-.19-1.4-.33-1.96-.41s-1.04-.23-1.43-.44c-.39-.21-.69-.54-.9-.99-.21-.45-.36-1.12-.46-1.99,0-.1.12-.38.36-.85.24-.47.44-.83.61-1.09.1-.13.27-.31.51-.56.24-.24.39-.36.46-.36.39-.03.91-.08,1.58-.14.66-.06,1.33-.09,2.01-.07.68.02,1.31.1,1.89.27.58.16.97.45,1.16.87.1.55.16,1.11.19,1.67.03.57,0,1.11-.12,1.62-.11.52-.32.99-.63,1.41-.31.42-.75.78-1.33,1.07-.1.03-.4.05-.9.05s-.85-.02-1.04-.05Z"/>
    <path class="cls-1" d="m667.27,412.36v-.82c0-.35,0-.7.02-1.04.02-.34.02-.65.02-.92v-.46s.02-.11.07-.24c.05-.13.1-.28.15-.46.05-.18.1-.35.17-.51.06-.16.11-.29.14-.39s.11-.28.24-.56c.13-.27.22-.46.29-.56.06-.1.15-.23.27-.39s.23-.33.34-.51c.11-.18.22-.33.31-.46s.16-.21.19-.24c.1-.1.24-.26.44-.48.19-.23.4-.45.63-.68.23-.23.44-.43.65-.61.21-.18.35-.3.41-.36.03-.03.15-.1.34-.22s.41-.23.65-.34c.24-.11.47-.22.68-.31.21-.1.36-.18.46-.24.06-.03.2-.07.41-.12.21-.05.43-.1.65-.17.23-.06.44-.12.65-.17.21-.05.36-.07.46-.07.13-.03.39-.07.78-.12.39-.05.81-.1,1.26-.15.45-.05.9-.1,1.33-.14.44-.05.75-.09.95-.12h1.07c.16-.03.39-.07.68-.12.29-.05.58-.1.87-.17.29-.06.55-.12.78-.17.22-.05.35-.07.39-.07.06-.06.17-.23.31-.48.14-.26.22-.45.22-.58v-15.62c0-.13.14-.33.41-.61.27-.27.49-.44.65-.51.03,0,.14,0,.32-.02.18-.02.31-.02.41-.02.13,0,.3,0,.51.02.21.02.33.02.36.02s.11.07.24.22c.13.14.23.27.29.36.06.06.15.23.27.48s.2.45.27.58c.1.19.22.49.36.9.14.4.22.64.22.7v7.57c-.03.61-.06,1.55-.07,2.81-.02,1.26-.04,2.69-.07,4.29-.03,1.6-.07,3.27-.12,5.02-.05,1.75-.09,3.42-.12,5.02-.03,1.6-.06,3.03-.1,4.29-.03,1.26-.06,2.2-.1,2.81,0,.1-.02.28-.07.53-.05.26-.1.53-.14.82-.05.29-.11.56-.17.8-.06.24-.11.41-.15.51-.03.06-.09.19-.17.39-.08.19-.18.4-.29.63-.11.23-.23.45-.34.68-.11.23-.2.39-.27.48-.03.06-.11.16-.24.29s-.23.21-.29.24c-.16.07-.4.15-.73.27-.32.11-.65.23-.99.34-.34.11-.65.22-.95.31s-.48.15-.58.15c-.32,0-.59,0-.8.02-.21.02-.43.02-.65.02h-1.14c-.24,0-.48,0-.73-.02-.24-.02-.46-.02-.65-.02h-.34c-.06,0-.21-.02-.44-.07-.23-.05-.48-.1-.75-.15-.27-.05-.56-.1-.85-.17-.29-.07-.5-.11-.63-.15-.19-.06-.49-.16-.9-.29-.4-.13-.64-.21-.7-.24-.16-.06-.4-.2-.7-.41-.31-.21-.63-.43-.97-.65-.34-.23-.66-.44-.97-.65s-.51-.36-.61-.46-.26-.25-.48-.46c-.23-.21-.45-.43-.68-.65-.23-.23-.44-.44-.63-.63l-.39-.39c-.1-.13-.23-.36-.41-.68-.18-.32-.35-.66-.51-1.02-.16-.36-.32-.68-.46-.97-.15-.29-.22-.48-.22-.58,0-.42,0-.78-.02-1.07s-.02-.58-.02-.87v-.73Zm4.85-.29c0,.19,0,.46.02.8.02.34.02.53.02.56s.05.12.15.27c.1.14.2.31.31.48.11.18.23.35.34.51.11.16.2.27.27.34.06.1.18.23.34.39.16.16.33.32.51.48.18.16.34.32.48.48.14.16.25.26.31.29.1.06.26.15.48.27s.45.23.68.34c.23.11.43.22.61.31.18.1.3.15.36.15s.24,0,.53.02c.29.02.62.03.99.05s.74.03,1.09.05c.35.02.63.02.82.02.13,0,.32,0,.58-.02.26-.02.52-.03.78-.05s.49-.03.7-.05c.21-.02.35-.02.41-.02l.53-.53v-10.81c0-.06-.14-.16-.41-.29s-.49-.21-.65-.24c-.36,0-.65,0-.87-.02-.23-.02-.45-.02-.68-.02h-1.11c-.23,0-.46,0-.7.02-.24.02-.45.02-.63.02h-.31c-.07,0-.19.02-.36.07-.18.05-.38.1-.61.15-.23.05-.45.1-.68.17-.23.07-.39.11-.48.15-.13.06-.32.16-.58.29-.26.13-.42.23-.48.29-.1.06-.23.17-.39.31-.16.15-.32.31-.48.48-.16.18-.32.34-.48.48-.16.15-.26.25-.29.32-.06.1-.15.25-.27.46-.11.21-.23.43-.34.65-.11.23-.22.44-.31.63s-.15.32-.15.39c0,.03,0,.23-.02.58-.02.36-.02.61-.02.78Z"/>
    <path class="cls-1" d="m691.81,410.76c.1-1.39.18-2.5.24-3.35.06-.84.23-1.58.51-2.23.27-.65.71-1.28,1.31-1.92.6-.63,1.48-1.43,2.64-2.4.1-.06.27-.17.51-.31.24-.14.51-.29.8-.44.29-.15.56-.27.8-.39s.41-.19.51-.22c.03,0,.14,0,.32-.02.18-.02.38-.02.61-.02s.44,0,.65-.02c.21-.02.38-.02.51-.02.23,0,.57.02,1.04.05.47.03.73.05.8.05,2.42.58,4.25,1.67,5.48,3.27,1.23,1.6,2.02,3.58,2.38,5.94.03.16.1.56.22,1.19.11.63.24,1.32.39,2.06.15.74.28,1.44.41,2.09.13.65.22,1.05.29,1.21.06.16.3.5.7,1.02.4.52.83,1.07,1.28,1.65s.88,1.12,1.29,1.62c.4.5.64.82.7.95.03.1.08.27.14.53.06.26.13.54.19.85.06.31.13.59.19.85.06.26.1.44.1.53-.06,0-.19,0-.39-.02s-.4-.03-.63-.05c-.23-.02-.44-.03-.63-.05s-.31-.02-.34-.02c-.1-.03-.34-.11-.73-.24-.39-.13-.8-.27-1.24-.41-.44-.14-.85-.28-1.24-.41-.39-.13-.63-.21-.73-.24h-1.31c-.1.03-.34.12-.73.27-.39.15-.8.29-1.24.44-.44.14-.85.28-1.24.41-.39.13-.63.19-.73.19-.03,0-.16,0-.39.02s-.48.03-.78.05l-.87.05c-.29.02-.52.02-.68.02s-.38,0-.65-.02-.54-.03-.8-.05c-.26-.02-.49-.03-.7-.05-.21-.02-.33-.02-.36-.02-.23-.06-.6-.21-1.12-.44-.52-.22-1.05-.48-1.6-.75-.55-.27-1.07-.55-1.55-.82-.49-.27-.81-.48-.97-.61-.78-.71-1.39-1.42-1.84-2.13s-.79-1.46-1.02-2.23c-.23-.78-.37-1.6-.44-2.47s-.1-1.84-.1-2.91Zm5.19.97c0,.19.02.49.05.9.03.4.05.64.05.7,0,.03.04.14.12.31.08.18.18.38.29.61s.23.44.34.65c.11.21.22.36.31.46.06.13.23.32.48.58.26.26.44.42.53.48.1.07.26.15.48.27.23.11.44.23.65.34.21.11.4.21.58.29.18.08.3.12.36.12.03,0,.14,0,.31.02.18.02.38.02.61.02s.44,0,.65.02c.21.02.38.02.51.02.97.03,1.74-.23,2.3-.8s.95-1.29,1.16-2.16.25-1.81.12-2.81c-.13-1-.41-1.94-.85-2.81-.44-.87-1.02-1.6-1.75-2.18-.73-.58-1.58-.87-2.55-.87-.1,0-.23,0-.39.02-.16.02-.32.03-.48.05-.16.02-.31.03-.44.05-.13.02-.21.02-.24.02-.06,0-.19.09-.39.27-.19.18-.4.37-.61.58s-.42.43-.63.65c-.21.23-.36.4-.46.53-.06.06-.14.19-.24.39s-.2.4-.32.63c-.11.23-.22.44-.31.65-.1.21-.16.36-.19.46-.03.19-.05.39-.05.58-.03.16-.05.33-.05.51v.41Z"/>
    <path class="cls-1" d="m718.53,412.36v-.82c0-.35,0-.7.02-1.04.02-.34.02-.65.02-.92v-.46s.02-.11.07-.24c.05-.13.1-.28.15-.46.05-.18.1-.35.17-.51.06-.16.11-.29.14-.39s.11-.28.24-.56c.13-.27.22-.46.29-.56.06-.1.15-.23.27-.39s.23-.33.34-.51c.11-.18.22-.33.31-.46s.16-.21.19-.24c.1-.1.24-.26.44-.48.19-.23.4-.45.63-.68.23-.23.44-.43.65-.61.21-.18.35-.3.41-.36.03-.03.15-.1.34-.22s.41-.23.65-.34c.24-.11.47-.22.68-.31.21-.1.36-.18.46-.24.06-.03.2-.07.41-.12.21-.05.43-.1.65-.17.23-.06.44-.12.65-.17.21-.05.36-.07.46-.07.13-.03.39-.07.78-.12.39-.05.81-.1,1.26-.15.45-.05.9-.1,1.33-.14.44-.05.75-.09.95-.12h1.07c.16-.03.39-.07.68-.12.29-.05.58-.1.87-.17.29-.06.55-.12.78-.17.22-.05.35-.07.39-.07.06-.06.17-.23.31-.48.14-.26.22-.45.22-.58v-15.62c0-.13.14-.33.41-.61.27-.27.49-.44.65-.51.03,0,.14,0,.32-.02.18-.02.31-.02.41-.02.13,0,.3,0,.51.02.21.02.33.02.36.02s.11.07.24.22c.13.14.23.27.29.36.06.06.15.23.27.48s.2.45.27.58c.1.19.22.49.36.9.14.4.22.64.22.7v7.57c-.03.61-.06,1.55-.07,2.81-.02,1.26-.04,2.69-.07,4.29-.03,1.6-.07,3.27-.12,5.02-.05,1.75-.09,3.42-.12,5.02-.03,1.6-.06,3.03-.1,4.29-.03,1.26-.06,2.2-.1,2.81,0,.1-.02.28-.07.53-.05.26-.1.53-.14.82-.05.29-.11.56-.17.8-.06.24-.11.41-.15.51-.03.06-.09.19-.17.39-.08.19-.18.4-.29.63-.11.23-.23.45-.34.68-.11.23-.2.39-.27.48-.03.06-.11.16-.24.29s-.23.21-.29.24c-.16.07-.4.15-.73.27-.32.11-.65.23-.99.34-.34.11-.65.22-.95.31s-.48.15-.58.15c-.32,0-.59,0-.8.02-.21.02-.43.02-.65.02h-1.14c-.24,0-.48,0-.73-.02-.24-.02-.46-.02-.65-.02h-.34c-.06,0-.21-.02-.44-.07-.23-.05-.48-.1-.75-.15-.27-.05-.56-.1-.85-.17-.29-.07-.5-.11-.63-.15-.19-.06-.49-.16-.9-.29-.4-.13-.64-.21-.7-.24-.16-.06-.4-.2-.7-.41-.31-.21-.63-.43-.97-.65-.34-.23-.66-.44-.97-.65s-.51-.36-.61-.46-.26-.25-.48-.46c-.23-.21-.45-.43-.68-.65-.23-.23-.44-.44-.63-.63l-.39-.39c-.1-.13-.23-.36-.41-.68-.18-.32-.35-.66-.51-1.02-.16-.36-.32-.68-.46-.97-.15-.29-.22-.48-.22-.58,0-.42,0-.78-.02-1.07s-.02-.58-.02-.87v-.73Zm4.85-.29c0,.19,0,.46.02.8.02.34.02.53.02.56s.05.12.15.27c.1.14.2.31.31.48.11.18.23.35.34.51.11.16.2.27.27.34.06.1.18.23.34.39.16.16.33.32.51.48.18.16.34.32.48.48.14.16.25.26.31.29.1.06.26.15.48.27s.45.23.68.34c.23.11.43.22.61.31.18.1.3.15.36.15s.24,0,.53.02c.29.02.62.03.99.05s.74.03,1.09.05c.35.02.63.02.82.02.13,0,.32,0,.58-.02.26-.02.52-.03.78-.05s.49-.03.7-.05c.21-.02.35-.02.41-.02l.53-.53v-10.81c0-.06-.14-.16-.41-.29s-.49-.21-.65-.24c-.36,0-.65,0-.87-.02-.23-.02-.45-.02-.68-.02h-1.11c-.23,0-.46,0-.7.02-.24.02-.45.02-.63.02h-.31c-.07,0-.19.02-.36.07-.18.05-.38.1-.61.15-.23.05-.45.1-.68.17-.23.07-.39.11-.48.15-.13.06-.32.16-.58.29-.26.13-.42.23-.48.29-.1.06-.23.17-.39.31-.16.15-.32.31-.48.48-.16.18-.32.34-.48.48-.16.15-.26.25-.29.32-.06.1-.15.25-.27.46-.11.21-.23.43-.34.65-.11.23-.22.44-.31.63s-.15.32-.15.39c0,.03,0,.23-.02.58-.02.36-.02.61-.02.78Z"/>
    <path class="cls-1" d="m766.19,412.36v-.82c0-.35,0-.7.02-1.04.02-.34.02-.65.02-.92v-.46s.02-.11.07-.24c.05-.13.1-.28.15-.46.05-.18.1-.35.17-.51.06-.16.11-.29.14-.39s.11-.28.24-.56c.13-.27.22-.46.29-.56.06-.1.15-.23.27-.39s.23-.33.34-.51c.11-.18.22-.33.31-.46s.16-.21.19-.24c.1-.1.24-.26.44-.48.19-.23.4-.45.63-.68.23-.23.44-.43.65-.61.21-.18.35-.3.41-.36.03-.03.15-.1.34-.22s.41-.23.65-.34c.24-.11.47-.22.68-.31.21-.1.36-.18.46-.24.06-.03.2-.07.41-.12.21-.05.43-.1.65-.17.23-.06.44-.12.65-.17.21-.05.36-.07.46-.07.13-.03.39-.07.78-.12.39-.05.81-.1,1.26-.15.45-.05.9-.1,1.33-.14.44-.05.75-.09.95-.12h1.07c.16-.03.39-.07.68-.12.29-.05.58-.1.87-.17.29-.06.55-.12.78-.17.22-.05.35-.07.39-.07.06-.06.17-.23.31-.48.14-.26.22-.45.22-.58v-15.62c0-.13.14-.33.41-.61.27-.27.49-.44.65-.51.03,0,.14,0,.32-.02.18-.02.31-.02.41-.02.13,0,.3,0,.51.02.21.02.33.02.36.02s.11.07.24.22c.13.14.23.27.29.36.06.06.15.23.27.48s.2.45.27.58c.1.19.22.49.36.9.14.4.22.64.22.7v7.57c-.03.61-.06,1.55-.07,2.81-.02,1.26-.04,2.69-.07,4.29-.03,1.6-.07,3.27-.12,5.02-.05,1.75-.09,3.42-.12,5.02-.03,1.6-.06,3.03-.1,4.29-.03,1.26-.06,2.2-.1,2.81,0,.1-.02.28-.07.53-.05.26-.1.53-.14.82-.05.29-.11.56-.17.8-.06.24-.11.41-.15.51-.03.06-.09.19-.17.39-.08.19-.18.4-.29.63-.11.23-.23.45-.34.68-.11.23-.2.39-.27.48-.03.06-.11.16-.24.29s-.23.21-.29.24c-.16.07-.4.15-.73.27-.32.11-.65.23-.99.34-.34.11-.65.22-.95.31s-.48.15-.58.15c-.32,0-.59,0-.8.02-.21.02-.43.02-.65.02h-1.14c-.24,0-.48,0-.73-.02-.24-.02-.46-.02-.65-.02h-.34c-.06,0-.21-.02-.44-.07-.23-.05-.48-.1-.75-.15-.27-.05-.56-.1-.85-.17-.29-.07-.5-.11-.63-.15-.19-.06-.49-.16-.9-.29-.4-.13-.64-.21-.7-.24-.16-.06-.4-.2-.7-.41-.31-.21-.63-.43-.97-.65-.34-.23-.66-.44-.97-.65s-.51-.36-.61-.46-.26-.25-.48-.46c-.23-.21-.45-.43-.68-.65-.23-.23-.44-.44-.63-.63l-.39-.39c-.1-.13-.23-.36-.41-.68-.18-.32-.35-.66-.51-1.02-.16-.36-.32-.68-.46-.97-.15-.29-.22-.48-.22-.58,0-.42,0-.78-.02-1.07s-.02-.58-.02-.87v-.73Zm4.85-.29c0,.19,0,.46.02.8.02.34.02.53.02.56s.05.12.15.27c.1.14.2.31.31.48.11.18.23.35.34.51.11.16.2.27.27.34.06.1.18.23.34.39.16.16.33.32.51.48.18.16.34.32.48.48.14.16.25.26.31.29.1.06.26.15.48.27s.45.23.68.34c.23.11.43.22.61.31.18.1.3.15.36.15s.24,0,.53.02c.29.02.62.03.99.05s.74.03,1.09.05c.35.02.63.02.82.02.13,0,.32,0,.58-.02.26-.02.52-.03.78-.05s.49-.03.7-.05c.21-.02.35-.02.41-.02l.53-.53v-10.81c0-.06-.14-.16-.41-.29s-.49-.21-.65-.24c-.36,0-.65,0-.87-.02-.23-.02-.45-.02-.68-.02h-1.11c-.23,0-.46,0-.7.02-.24.02-.45.02-.63.02h-.31c-.07,0-.19.02-.36.07-.18.05-.38.1-.61.15-.23.05-.45.1-.68.17-.23.07-.39.11-.48.15-.13.06-.32.16-.58.29-.26.13-.42.23-.48.29-.1.06-.23.17-.39.31-.16.15-.32.31-.48.48-.16.18-.32.34-.48.48-.16.15-.26.25-.29.32-.06.1-.15.25-.27.46-.11.21-.23.43-.34.65-.11.23-.22.44-.31.63s-.15.32-.15.39c0,.03,0,.23-.02.58-.02.36-.02.61-.02.78Z"/>
    <path class="cls-1" d="m796.99,422.5c-.58-.35-1.22-.74-1.92-1.16-.69-.42-1.35-.89-1.96-1.41-.61-.52-1.16-1.09-1.65-1.72-.48-.63-.79-1.35-.92-2.16-.03-.16-.06-.53-.07-1.11s-.02-1.21-.02-1.89,0-1.34.02-1.99c.02-.65.04-1.13.07-1.45,0-1.26.29-2.46.87-3.61s1.37-2.11,2.38-2.89c.03-.03.15-.12.36-.27.21-.15.44-.31.7-.48.26-.18.52-.35.78-.51.26-.16.45-.27.58-.34.06-.03.18-.09.34-.17.16-.08.33-.17.51-.27.18-.1.34-.18.48-.24.15-.06.23-.11.27-.15,1.13-.42,2.3-.69,3.52-.8,1.21-.11,2.45-.1,3.71.02,1.13.16,2.07.39,2.81.68s1.35.69,1.82,1.19.84,1.12,1.12,1.87c.27.74.51,1.65.7,2.72.16.61.15,1.16-.05,1.65s-.44,1.02-.73,1.6c-.16.23-.44.49-.82.8s-1.09.61-2.11.9c-1.02.29-2.44.54-4.27.75s-4.26.31-7.3.31c-.06.16-.12.41-.17.75-.05.34-.07.7-.07,1.09s.02.76.07,1.12c.05.36.1.6.17.73.13.26.41.53.85.82s.94.56,1.5.8c.56.24,1.15.44,1.75.61.6.16,1.09.23,1.48.19.1-.03.35-.09.75-.17.4-.08.83-.17,1.28-.27s.87-.19,1.26-.27c.39-.08.63-.12.73-.12.52,0,1.08-.03,1.7-.1.61-.06,1.16-.05,1.65.05s.82.32.99.68.09.95-.27,1.79c0,.06-.07.17-.22.31-.14.15-.3.31-.46.49s-.33.34-.51.48c-.18.14-.31.25-.41.31-.16.1-.41.23-.75.41-.34.18-.68.35-1.02.51-.34.16-.65.31-.92.44-.27.13-.46.21-.56.24-1.36.19-2.72.24-4.07.14-1.36-.1-2.68-.4-3.98-.92Zm.92-16.15c-.16.36-.14.65.07.9.21.24.48.44.82.58.34.14.7.26,1.09.34.39.08.71.12.97.12.39-.1.88-.18,1.48-.24.6-.06,1.15-.19,1.65-.36.5-.18.86-.44,1.09-.78.23-.34.15-.85-.24-1.53-.03-.06-.13-.14-.29-.24-.16-.1-.35-.2-.56-.31-.21-.11-.42-.22-.63-.32-.21-.1-.36-.16-.46-.19-.97-.16-1.88-.04-2.74.36-.86.4-1.61.96-2.25,1.67Z"/>
    <path class="cls-1" d="m843.49,403.49c-.26-.06-.7-.22-1.33-.46-.63-.24-1.29-.5-1.99-.78-.7-.27-1.35-.54-1.96-.8-.61-.26-1.03-.45-1.26-.58-.58-.39-.94-.7-1.07-.94-.13-.24-.1-.45.07-.63.18-.18.48-.35.9-.51s.89-.36,1.41-.58c.16-.06.46-.16.9-.29.44-.13.9-.27,1.41-.41.5-.14.97-.27,1.41-.39.44-.11.73-.18.9-.22,0-3.01.07-5.37.22-7.1.14-1.73.32-3.03.53-3.9.21-.87.43-1.43.65-1.67.23-.24.4-.38.53-.41.26-.06.57-.12.95-.17.37-.05.73-.09,1.09-.12.39-.03.81-.06,1.26-.1v12.17s.07.11.22.22c.15.11.32.24.53.39.21.14.43.28.65.41.23.13.4.23.53.29.94,0,1.81.15,2.62.44s1.68.58,2.62.87c.16.06.4.27.73.61.32.34.52.59.58.75-.06.13-.26.36-.58.7-.32.34-.57.54-.73.61-.23.13-.65.32-1.26.58-.61.26-1.27.53-1.96.8-.7.27-1.36.53-1.99.78-.63.24-1.07.4-1.33.46,0,.16,0,.46-.02.9s-.02.9-.02,1.38,0,.95-.02,1.38c-.02.44-.02.74-.02.9,0,.29,0,.7.02,1.21.02.52.02,1.02.02,1.5s0,.91.02,1.29.02.57.02.61c0,.13.05.38.14.75s.22.76.36,1.16c.14.4.29.8.44,1.19.15.39.27.66.36.82.03.1.1.22.22.36.11.14.24.29.39.44.14.15.28.27.41.36.13.1.23.15.29.15.13.03.45.05.97.05s1.07-.02,1.67-.05,1.15-.05,1.65-.05.82.02.94.05c.16,0,.4.17.73.51.32.34.52.61.58.8,0,.1.02.19.05.29.06.19.1.31.1.34,0,.06-.03.19-.1.39-.03.1-.05.19-.05.29-.06.13-.26.36-.58.7-.32.34-.57.54-.73.61-.13.07-.38.16-.75.29-.37.13-.77.27-1.19.41-.42.14-.82.27-1.21.39s-.65.19-.78.22c-.03,0-.13,0-.29.02s-.36.03-.58.05c-.23.02-.45.03-.68.05s-.4.02-.53.02h-.53c-.19,0-.39-.02-.58-.05-.23-.03-.47-.06-.73-.1-.07-.03-.21-.16-.44-.39-.23-.23-.48-.48-.75-.75-.27-.27-.55-.55-.82-.82-.27-.27-.48-.49-.61-.65-.1-.1-.22-.27-.36-.51-.15-.24-.29-.51-.44-.8-.14-.29-.27-.56-.36-.8-.1-.24-.14-.41-.14-.51-.06-.36-.15-.9-.24-1.65-.1-.74-.19-1.58-.29-2.52-.1-.94-.19-1.93-.27-2.98-.08-1.05-.16-2.05-.24-3.01-.08-.95-.15-1.8-.19-2.55-.05-.74-.07-1.31-.07-1.7Z"/>
    <path class="cls-1" d="m860.37,408.72c0-.29,0-.82.02-1.58.02-.76.03-1.55.05-2.38s.03-1.61.05-2.35c.02-.74.02-1.26.02-1.55.16-.26.39-.51.68-.75.29-.24.73-.44,1.31-.61.42,0,.9.13,1.43.39.53.26.93.58,1.19.97,0,3.98.07,7.1.22,9.36.15,2.26.32,3.95.53,5.07.21,1.11.43,1.82.65,2.11.23.29.4.45.53.49.03,0,.14,0,.32.02.18.02.38.03.61.05.23.02.44.03.65.05.21.02.38.02.51.02h.51c.21,0,.41-.02.61-.05.22-.03.47-.06.73-.1,1.52-.58,2.57-1.54,3.15-2.89.58-1.34.92-2.84,1.02-4.51.1-1.67.07-3.35-.07-5.07-.15-1.71-.2-3.23-.17-4.56.23-.9.48-1.58.75-2.01.27-.44.86-.69,1.77-.75.19,0,.46.02.8.05.34.03.54.05.61.05.16.06.4.27.73.61.32.34.52.57.58.7.06.45.17,1.23.32,2.33.14,1.1.28,2.28.41,3.54.13,1.26.25,2.46.36,3.59.11,1.13.19,1.92.22,2.38v9.17c-.06.13-.26.36-.58.7-.32.34-.57.54-.73.61-.1.03-.34.05-.73.05s-.8-.02-1.24-.05c-.44-.03-.85-.05-1.24-.05s-.63.02-.73.05c-.61.42-1.16.73-1.65.92-.48.19-.99.33-1.53.41-.53.08-1.12.11-1.75.1-.63-.02-1.38,0-2.25.02-.91,0-1.7,0-2.38.02-.68.02-1.28-.05-1.82-.19-.53-.15-1.04-.41-1.53-.8s-.99-.99-1.5-1.79c-.48-.87-.82-1.78-1.02-2.72-.19-.94-.32-1.9-.39-2.89-.06-.99-.09-2-.07-3.03s.02-2.09.02-3.15Z"/>
    <path class="cls-1" d="m926.85,422.74c-.03-.16-.07-.48-.12-.95-.05-.47-.11-.97-.17-1.5-.06-.53-.12-1.03-.17-1.5-.05-.47-.07-.8-.07-.99s-.02-.64-.07-1.33c-.05-.69-.11-1.45-.17-2.26-.06-.81-.13-1.56-.19-2.25-.06-.69-.11-1.14-.15-1.33,0-.13-.02-.31-.07-.53-.05-.23-.1-.45-.17-.68-.06-.23-.12-.43-.17-.61-.05-.18-.09-.3-.12-.36-.03-.03-.11-.13-.24-.29-.13-.16-.28-.33-.46-.51s-.36-.35-.53-.51c-.18-.16-.31-.27-.41-.34-.1-.1-.29-.22-.58-.36-.29-.14-.47-.22-.53-.22-.32,0-.59,0-.8-.02-.21-.02-.42-.02-.63-.02h-.51c-.26,0-.63,0-1.12.02s-.74.02-.78.02c-.1,0-.29.07-.58.22-.29.15-.47.27-.53.36-.1.1-.26.25-.48.46s-.46.43-.7.65c-.24.23-.46.44-.65.65-.19.21-.31.35-.34.41-.03.06-.08.17-.15.31-.06.14-.13.31-.19.48-.06.18-.12.35-.17.51-.05.16-.07.27-.07.34,0,.13-.03.44-.1.92-.06.48-.13,1.01-.19,1.58-.06.57-.12,1.09-.17,1.58-.05.48-.07.79-.07.92-.03.23-.08.53-.14.92-.07.39-.13.79-.19,1.21-.07.42-.12.79-.17,1.12-.05.32-.07.52-.07.58,0,.1-.02.23-.07.39-.05.16-.1.33-.17.51-.07.18-.13.34-.19.48-.07.15-.11.23-.15.27-.06.1-.17.23-.31.39-.15.16-.3.33-.46.51-.16.18-.32.34-.48.48-.16.15-.27.23-.34.27-.1.03-.18.05-.24.05-.1.03-.21.05-.34.05-.06,0-.16-.02-.29-.05-.13-.03-.21-.05-.24-.05-.13-.06-.33-.23-.61-.51s-.43-.46-.46-.56c-.06-.1-.13-.27-.19-.53-.06-.26-.12-.53-.17-.82-.05-.29-.1-.57-.15-.85-.05-.27-.07-.46-.07-.56v-34.19c0-.1.02-.25.07-.46.05-.21.1-.43.15-.65.05-.23.1-.44.17-.65.06-.21.13-.36.19-.46.03-.13.18-.33.46-.61.27-.27.48-.44.61-.51h1.11c.06.03.23.12.51.27.27.15.48.25.61.32.03.03.11.11.24.24.13.13.21.23.24.29.16.16.35.38.56.65.21.27.31.43.31.46v17.12l.82.48c.13-.03.35-.1.65-.19.31-.1.64-.2.99-.31.35-.11.69-.22.99-.32s.52-.18.65-.24c.23-.06.61-.16,1.16-.29s.9-.21,1.07-.24h1.12c.1,0,.25.02.46.07.21.05.44.1.68.17.24.06.46.12.65.17.19.05.32.09.39.12l.39.19c.19.1.41.2.65.31.24.11.47.23.68.34s.36.19.46.22l.58.58c.03.06.1.18.22.34.11.16.23.33.36.51s.24.35.34.51c.1.16.16.27.19.34.03.06.1.19.19.39s.21.41.34.65c.13.24.24.47.34.68s.16.36.19.46c.03.13.1.33.22.61s.23.56.36.85c.13.29.24.56.34.8.1.24.16.41.19.51,0,.03.02.15.07.34.05.19.1.4.17.63.06.23.13.45.19.68.06.23.11.4.15.53.03.19.08.44.14.73s.12.58.17.87c.05.29.1.55.14.78.05.23.07.36.07.39v.56c0,.34,0,.73.02,1.16.02.44.02.88.02,1.33v1.94c0,.39,0,.8-.02,1.24-.02.44-.02.85-.02,1.24v.82c-.06.06-.16.24-.29.53s-.21.47-.24.53c-.13.16-.33.38-.61.65-.27.27-.44.43-.51.46-.1.03-.18.05-.24.05h-.68c-.06,0-.13-.02-.19-.05-.13-.07-.33-.24-.61-.53s-.44-.48-.51-.58Z"/>
    <path class="cls-1" d="m933.25,411.59v-.56c0-.24,0-.48.02-.7s.02-.52.02-.87c0-.06.02-.22.07-.46.05-.24.11-.5.19-.78s.15-.54.22-.8c.06-.26.13-.47.19-.63.19-.65.45-1.31.78-1.99.32-.68.71-1.31,1.16-1.89.35-.55.81-1.03,1.36-1.43.55-.4,1.08-.8,1.6-1.19,1.42-.45,2.79-.78,4.1-.97,1.31-.19,2.51-.24,3.59-.14,1.08.1,2.02.34,2.81.73.79.39,1.41.94,1.87,1.65.03.07.13.22.29.46.16.24.29.43.39.56.13.23.32.54.56.95.24.4.38.62.41.65,0,.06.05.22.15.46.1.24.19.52.29.85.1.32.19.64.29.95.1.31.18.56.24.75.13.39.22.77.27,1.14.05.37.09.82.12,1.33,0,.74-.07,1.47-.22,2.18-.14.71-.31,1.44-.51,2.18-.03.1-.09.28-.17.56-.08.27-.17.57-.27.87-.1.31-.19.61-.29.9s-.16.5-.19.63c-.45,1.1-1.1,2.1-1.94,3.01-.84.91-1.83,1.63-2.96,2.18-.1,0-.27.03-.53.1-.26.06-.53.14-.82.22-.29.08-.56.15-.8.22-.24.07-.4.11-.46.15-.06.03-.15.08-.27.14-.11.07-.24.14-.39.22-.14.08-.28.14-.41.19-.13.05-.21.07-.24.07-.07,0-.23,0-.48.02-.26.02-.47.02-.63.02s-.39,0-.68-.02c-.29-.02-.47-.02-.53-.02-.03,0-.18-.03-.44-.1-.26-.07-.44-.13-.53-.19-.06-.03-.28-.15-.65-.34s-.59-.32-.65-.39c-.55,0-1.06-.18-1.53-.53-.47-.35-.95-.81-1.43-1.36-.03-.03-.17-.22-.41-.56-.24-.34-.43-.59-.56-.75-.26-.39-.48-.77-.68-1.14s-.39-.75-.58-1.14c-.03-.03-.1-.22-.19-.56-.1-.34-.16-.59-.19-.75-.07-.23-.13-.55-.19-.97-.07-.42-.1-.65-.1-.68v-.34c0-.19,0-.42-.02-.68s-.02-.52-.02-.78v-.63Zm5.14-.58v.48c0,.19,0,.39.02.58.02.19.02.36.02.51v.27c0,.06.02.19.05.39.03.19.07.4.12.63.05.23.1.44.17.63.06.19.11.34.14.44.06.16.19.44.39.85s.32.65.39.75c.1.1.31.32.63.65.32.34.55.54.68.61.65.36,1.38.49,2.21.39.82-.1,1.56-.31,2.21-.63.1-.19.25-.35.46-.46.21-.11.38-.23.51-.36.1-.03.31-.19.65-.48.34-.29.57-.47.7-.53.03-.03.07-.06.12-.1.05-.03.09-.06.12-.1.06-.03.11-.12.15-.27.03-.15.06-.25.1-.31.03,0,.07-.04.12-.12.05-.08.09-.14.12-.17.06-.06.15-.27.27-.61.11-.34.19-.56.22-.65.06-.1.14-.27.22-.53.08-.26.12-.42.12-.48v-.27c0-.14,0-.31.02-.51s.02-.39.02-.58v-.95c0-.21,0-.41-.02-.61s-.02-.36-.02-.51v-.27c0-.06-.04-.22-.12-.46-.08-.24-.15-.43-.22-.56-.29-.84-.65-1.43-1.09-1.77-.44-.34-.99-.67-1.67-.99-.26-.13-.5-.21-.73-.24s-.48-.06-.78-.1c-.9,0-1.79.11-2.67.34-.19.03-.4.14-.61.32-.21.18-.44.3-.7.36-.06.07-.15.16-.27.29-.11.13-.24.27-.39.41-.15.14-.27.27-.39.39-.11.11-.19.19-.22.22-.06.03-.15.18-.27.44-.11.26-.2.47-.27.63-.06.16-.16.4-.29.73s-.19.5-.19.53c0,.06,0,.32-.02.78-.02.45-.02.79-.02,1.02Z"/>
    <path class="cls-1" d="m978.01,430.89c-.84,1.55-1.92,2.73-3.22,3.54-1.31.81-2.67,1.3-4.07,1.48-1.41.18-2.77.07-4.1-.31-1.33-.39-2.43-.99-3.3-1.82-.87-.82-1.43-1.84-1.67-3.06-.24-1.21.02-2.56.8-4.05.13-.03.4-.05.82-.05s.69.02.82.05c.16.06.45.2.87.41.42.21.69.36.82.46l.29.29c.16.16.33.34.51.53.18.19.35.37.51.53.16.16.27.26.34.29.97.29,1.82.34,2.55.15.73-.19,1.38-.54,1.96-1.04.58-.5,1.12-1.12,1.6-1.84.48-.73.97-1.48,1.45-2.26.03-.16.05-.48.05-.95s0-.96-.02-1.48c-.02-.52-.04-1-.07-1.45s-.06-.76-.1-.92c-1,.39-2.09.74-3.27,1.07-1.18.32-2.38.55-3.59.68-1.21.13-2.41.15-3.59.05-1.18-.1-2.28-.38-3.3-.85-1.02-.47-1.92-1.13-2.72-1.99-.79-.86-1.4-1.98-1.82-3.37-.26-.94-.5-1.89-.73-2.86-.23-.97-.26-1.97-.1-3.01.22-.9.45-1.7.68-2.4.23-.69.5-1.34.82-1.94.32-.6.71-1.16,1.16-1.7.45-.53,1.03-1.11,1.75-1.72-.45-.03-.4-.15.14-.36.55-.21,1.4-.41,2.55-.61,1.15-.19,2.49-.33,4.02-.41,1.54-.08,3.04,0,4.51.22,1.47.23,2.81.64,4.03,1.24,1.21.6,2.08,1.5,2.59,2.69.06.06.18.23.34.51.16.27.32.59.48.94.16.36.32.71.48,1.07.16.36.27.63.34.82.39.87.69,1.67.92,2.38.23.71.4,1.41.53,2.11s.21,1.41.24,2.16c.03.74.03,1.6,0,2.57-.19,2.52-.54,4.96-1.04,7.32-.5,2.36-1.27,4.66-2.3,6.89Zm-14.6-16.2c.61.42,1.32.73,2.11.92s1.6.28,2.42.27c.82-.02,1.64-.12,2.45-.32.81-.19,1.55-.48,2.23-.87.06-.06.21-.21.44-.44.23-.23.37-.37.44-.44.16-.19.36-.52.58-.99s.34-.77.34-.9c.16-1.03.22-1.94.17-2.72-.05-.78-.24-1.45-.58-2.04-.34-.58-.85-1.08-1.53-1.5-.68-.42-1.55-.78-2.62-1.07-.13-.03-.33-.05-.61-.05h-1.65c-.24,0-.41.02-.51.05-1.2.29-2.23.7-3.1,1.21-.87.52-1.52,1.16-1.94,1.94s-.61,1.67-.56,2.69c.05,1.02.4,2.14,1.04,3.37.06.06.21.21.44.44.23.23.37.37.44.44Z"/>
    <path class="cls-1" d="m984.71,410.76c.1-1.39.18-2.5.24-3.35.06-.84.23-1.58.51-2.23.27-.65.71-1.28,1.31-1.92.6-.63,1.48-1.43,2.64-2.4.1-.06.27-.17.51-.31.24-.14.51-.29.8-.44.29-.15.56-.27.8-.39s.41-.19.51-.22c.03,0,.14,0,.32-.02.18-.02.38-.02.61-.02s.44,0,.65-.02c.21-.02.38-.02.51-.02.23,0,.57.02,1.04.05.47.03.73.05.8.05,2.42.58,4.25,1.67,5.48,3.27,1.23,1.6,2.02,3.58,2.38,5.94.03.16.1.56.22,1.19.11.63.24,1.32.39,2.06.15.74.28,1.44.41,2.09.13.65.22,1.05.29,1.21.06.16.3.5.7,1.02.4.52.83,1.07,1.28,1.65s.88,1.12,1.29,1.62c.4.5.64.82.7.95.03.1.08.27.14.53.06.26.13.54.19.85.06.31.13.59.19.85.06.26.1.44.1.53-.06,0-.19,0-.39-.02s-.4-.03-.63-.05c-.23-.02-.44-.03-.63-.05s-.31-.02-.34-.02c-.1-.03-.34-.11-.73-.24-.39-.13-.8-.27-1.24-.41-.44-.14-.85-.28-1.24-.41-.39-.13-.63-.21-.73-.24h-1.31c-.1.03-.34.12-.73.27-.39.15-.8.29-1.24.44-.44.14-.85.28-1.24.41-.39.13-.63.19-.73.19-.03,0-.16,0-.39.02s-.48.03-.78.05l-.87.05c-.29.02-.52.02-.68.02s-.38,0-.65-.02-.54-.03-.8-.05c-.26-.02-.49-.03-.7-.05-.21-.02-.33-.02-.36-.02-.23-.06-.6-.21-1.12-.44-.52-.22-1.05-.48-1.6-.75-.55-.27-1.07-.55-1.55-.82-.49-.27-.81-.48-.97-.61-.78-.71-1.39-1.42-1.84-2.13s-.79-1.46-1.02-2.23c-.23-.78-.37-1.6-.44-2.47s-.1-1.84-.1-2.91Zm5.19.97c0,.19.02.49.05.9.03.4.05.64.05.7,0,.03.04.14.12.31.08.18.18.38.29.61s.23.44.34.65c.11.21.22.36.31.46.06.13.23.32.48.58.26.26.44.42.53.48.1.07.26.15.48.27.23.11.44.23.65.34.21.11.4.21.58.29.18.08.3.12.36.12.03,0,.14,0,.31.02.18.02.38.02.61.02s.44,0,.65.02c.21.02.38.02.51.02.97.03,1.74-.23,2.3-.8s.95-1.29,1.16-2.16.25-1.81.12-2.81c-.13-1-.41-1.94-.85-2.81-.44-.87-1.02-1.6-1.75-2.18-.73-.58-1.58-.87-2.55-.87-.1,0-.23,0-.39.02-.16.02-.32.03-.48.05-.16.02-.31.03-.44.05-.13.02-.21.02-.24.02-.06,0-.19.09-.39.27-.19.18-.4.37-.61.58s-.42.43-.63.65c-.21.23-.36.4-.46.53-.06.06-.14.19-.24.39s-.2.4-.32.63c-.11.23-.22.44-.31.65-.1.21-.16.36-.19.46-.03.19-.05.39-.05.58-.03.16-.05.33-.05.51v.41Z"/>
    <path class="cls-1" d="m1012.06,413.57c0-.39,0-.92.02-1.6.02-.68.03-1.34.05-1.99.02-.65.03-1.22.05-1.72.02-.5.02-.78.02-.85.03-.32.1-.86.22-1.62s.24-1.56.39-2.4c.15-.84.28-1.62.41-2.35.13-.73.23-1.22.29-1.48.06-.16.27-.41.61-.75s.57-.54.7-.61c.06,0,.27-.02.61-.05.34-.03.57-.05.7-.05.1,0,.21,0,.34.02.13.02.27.02.44.02.16.03.34.05.53.05.1.03.27.19.51.46.24.28.51.57.8.87s.56.6.8.87c.24.27.41.43.51.46.16.03.56.04,1.21.02s1.34-.03,2.09-.05c.74-.02,1.43-.02,2.06-.02s1.03.02,1.19.05c.13,0,.33.05.61.15s.55.21.82.34c.27.13.52.28.75.44.23.16.37.29.44.39.03.03.11.16.24.39.13.23.27.48.41.78.15.29.28.57.41.85.13.27.21.48.24.61,0,.06.02.15.05.24.06.19.1.32.1.39,0,.1-.03.24-.1.44-.03.1-.05.18-.05.24-.68,1.03-1.24,1.73-1.67,2.09-.44.36-.87.48-1.31.39-.44-.1-.92-.37-1.45-.82-.53-.45-1.24-1-2.11-1.65-.13-.06-.32-.17-.58-.31-.26-.15-.53-.28-.8-.41-.27-.13-.53-.25-.78-.36-.24-.11-.4-.19-.46-.22-.71,0-1.22.07-1.53.22-.31.14-.67.51-1.09,1.09-.03.32-.08.82-.14,1.5-.06.68-.14,1.45-.22,2.3s-.16,1.76-.24,2.72c-.08.95-.17,1.86-.27,2.72-.1.86-.19,1.63-.27,2.33-.08.7-.14,1.2-.17,1.53-.03.19-.11.49-.22.9-.11.4-.24.81-.39,1.21-.14.4-.28.78-.41,1.14-.13.36-.23.58-.29.68l-.19.1c-.06.03-.13.05-.19.05h-.15c-.23,0-.39-.02-.48-.05l-.29-.1c-.55-.55-1.09-1.14-1.62-1.77-.53-.63-.86-1.35-.99-2.16,0-.03,0-.27-.02-.73-.02-.45-.03-.99-.05-1.6-.02-.61-.03-1.23-.05-1.84-.02-.61-.02-1.1-.02-1.45Z"/>
    <path class="cls-1" d="m1034.17,419.15c.26-.39.56-.67.9-.85.34-.18.69-.27,1.04-.27.65,0,1.2.19,1.65.58.1.06.19.13.29.19.1.06.21.15.34.24.23.23.37.42.44.58s.11.39.15.68c-.19,1.03-.55,1.79-1.07,2.25-.52.47-1.07.7-1.65.7-.65,0-1.24-.23-1.77-.7-.53-.47-.8-1.07-.8-1.82,0-.52.16-1.05.48-1.6Z"/>
  </g>
</svg>